<?xml version="1.0" encoding="utf-8"?>
<!-- Generator: Adobe Illustrator 18.1.1, SVG Export Plug-In . SVG Version: 6.00 Build 0)  -->
<svg version="1.1" id="Layer_1" xmlns="http://www.w3.org/2000/svg" xmlns:xlink="http://www.w3.org/1999/xlink" x="0px" y="0px"
	 viewBox="0 0 811.3 345.6" enable-background="new 0 0 811.3 345.6" xml:space="preserve">
<g id="iIChqx.tif" display="none">
	
		<image display="inline" overflow="visible" width="1023" height="415" id="Layer_0_1_" xlink:href="7763C5BF4A107020.png"  transform="matrix(1 0 0 1 -188.0291 -53)">
	</image>
</g>
<g>
	<rect x="199" y="278" fill="#169647" width="30" height="51"/>
	<rect x="237.8" y="107" fill="#57B9FC" width="30" height="222"/>
	<rect x="315.4" y="24" fill="#57B9FC" width="30" height="305"/>
	<rect x="276.6" y="58" fill="#57B9FC" width="30" height="271"/>
	<rect x="121.3" y="327.3" fill="#57B9FC" width="30" height="1.4"/>
	<rect x="82.5" y="328" fill="#57B9FC" width="30" height="1"/>
	<rect x="626" y="163" fill="#57B9FC" width="30" height="166"/>
	<rect x="354.3" y="73" fill="#57B9FC" width="30" height="256"/>
	<rect x="393.1" y="127.2" fill="#57B9FC" width="30" height="201.8"/>
	<rect x="470.7" y="152" fill="#57B9FC" width="30" height="177"/>
	<rect x="431.9" y="139" fill="#57B9FC" width="30" height="190"/>
	<rect x="587.2" y="156.2" fill="#57B9FC" width="30" height="172.8"/>
	<rect x="509.6" y="164.2" fill="#57B9FC" width="30" height="164.8"/>
	<rect x="548.4" y="147" fill="#57B9FC" width="30" height="182"/>
	<rect x="781.3" y="119.4" fill="#57B9FC" width="30" height="209.6"/>
	<rect x="742.5" y="116.9" fill="#57B9FC" width="30" height="212.1"/>
	<rect x="664.9" y="129" fill="#57B9FC" width="30" height="200"/>
	<rect x="703.7" y="121.6" fill="#57B9FC" width="30" height="207.4"/>
</g>
<line fill="none" stroke="#EAEAE8" stroke-miterlimit="10" x1="811" y1="329.5" x2="3" y2="329.5"/>
<g>
	<g>
		<line fill="none" stroke="#EAEAE8" stroke-miterlimit="10" x1="808" y1="248.5" x2="807" y2="248.5"/>
		<line fill="none" stroke="#EAEAE8" stroke-miterlimit="10" stroke-dasharray="2,2" x1="805" y1="248.5" x2="5" y2="248.5"/>
		<line fill="none" stroke="#EAEAE8" stroke-miterlimit="10" x1="4" y1="248.5" x2="3" y2="248.5"/>
	</g>
</g>
<line fill="#FFFFFF" stroke="#169647" stroke-miterlimit="10" x1="811" y1="170.5" x2="3" y2="170.5"/>
<g>
	<g>
		<line fill="none" stroke="#EAEAE8" stroke-miterlimit="10" x1="808" y1="90.5" x2="807" y2="90.5"/>
		<line fill="none" stroke="#EAEAE8" stroke-miterlimit="10" stroke-dasharray="2,2" x1="805" y1="90.5" x2="5" y2="90.5"/>
		<line fill="none" stroke="#EAEAE8" stroke-miterlimit="10" x1="4" y1="90.5" x2="3" y2="90.5"/>
	</g>
</g>
<line fill="none" stroke="#EAEAE8" stroke-miterlimit="10" stroke-dasharray="2" x1="808" y1="10.5" x2="3" y2="10.5"/>
<rect x="2.3" y="252.5" fill="none" width="44" height="9.1"/>
<text transform="matrix(1 0 0 1 2.2655 259.8701)" fill="#7A7A7A" font-family="'Lato-Regular'" font-size="10">250,000</text>
<rect x="2.3" y="173.5" fill="none" width="44" height="9.1"/>
<text transform="matrix(1 0 0 1 2.2655 180.8701)" fill="#7A7A7A" font-family="'Lato-Regular'" font-size="10">500,000</text>
<rect x="2.3" y="94.5" fill="none" width="44" height="9.1"/>
<text transform="matrix(1 0 0 1 2.2655 101.8701)" fill="#7A7A7A" font-family="'Lato-Regular'" font-size="10">750,000</text>
<rect x="2.3" y="15.5" fill="none" width="49.2" height="7.5"/>
<text transform="matrix(1 0 0 1 2.2655 22.8701)" fill="#7A7A7A" font-family="'Lato-Regular'" font-size="10">1,000,000</text>
<rect x="142.3" y="336.5" fill="none" width="86.7" height="9.1"/>
<text transform="matrix(1 0 0 1 201.9531 343.1328)" fill="#7A7A7A" font-family="'Lato-Regular'" font-size="9">Feb 13</text>
<rect x="25.8" y="336.5" fill="none" width="86.7" height="9.1"/>
<text transform="matrix(1 0 0 1 84.6004 343.1328)" fill="#7A7A7A" font-family="'Lato-Regular'" font-size="9">Aug 12</text>
<rect x="64.7" y="336.5" fill="none" width="86.7" height="9.1"/>
<text transform="matrix(1 0 0 1 124.405 343.1328)" fill="#7A7A7A" font-family="'Lato-Regular'" font-size="9">Oct 12</text>
<rect x="336.4" y="336.5" fill="none" width="86.7" height="9.1"/>
<text transform="matrix(1 0 0 1 396.9081 343.1328)" fill="#7A7A7A" font-family="'Lato-Regular'" font-size="9">Jun 13</text>
<rect x="491.7" y="336.5" fill="none" width="86.7" height="9.1"/>
<text transform="matrix(1 0 0 1 551.4648 343.1328)" fill="#7A7A7A" font-family="'Lato-Regular'" font-size="9">Oct 13</text>
<rect x="724.7" y="336.5" fill="none" width="86.7" height="9.1"/>
<text transform="matrix(1 0 0 1 784.4334 343.1328)" fill="#7A7A7A" font-family="'Lato-Regular'" font-size="9">Apr 14</text>
<rect x="33" y="152" fill="none" width="192" height="27"/>
<text transform="matrix(1 0 0 1 56.2716 160.8438)" fill="#169647" font-family="'Lato-Italic'" font-size="12">Average over 500K, 100x increase</text>
<rect x="0" y="278.5" fill="none" width="192" height="27"/>
<text transform="matrix(1 0 0 1 114.9609 287.3438)" fill="#169647" font-family="'Lato-Italic'" font-size="12">Started Causely</text>
<g>
	<defs>
		<rect id="SVGID_1_" x="-359" y="-77.4" width="335" height="468.8"/>
	</defs>
	<clipPath id="SVGID_2_">
		<use xlink:href="#SVGID_1_"  overflow="visible"/>
	</clipPath>
	<g id="tPOQYW.tif" clip-path="url(#SVGID_2_)">
		
			<image overflow="visible" width="1024" height="558" id="Layer_0_2_" xlink:href="7763C5BF4A107021.png"  transform="matrix(1 0 0 1 -380.3819 -124.5977)">
		</image>
	</g>
</g>
</svg>
