<?xml version="1.0" encoding="utf-8"?>
<!-- Generator: Adobe Illustrator 18.1.1, SVG Export Plug-In . SVG Version: 6.00 Build 0)  -->
<svg version="1.1" id="Layer_1" xmlns="http://www.w3.org/2000/svg" xmlns:xlink="http://www.w3.org/1999/xlink" x="0px" y="0px"
	 viewBox="0 0 859 440.1" enable-background="new 0 0 859 440.1" xml:space="preserve">
<g id="iIChqx.tif" display="none">
	
		<image display="inline" overflow="visible" width="1023" height="415" id="Layer_0_1_" xlink:href="EB60D74AD1550FEB.png"  transform="matrix(1 0 0 1 -164 24.4232)">
	</image>
</g>
<g>
	<rect x="223" y="355.4" fill="#169647" width="30" height="51"/>
	<rect x="261.8" y="184.4" fill="#57B9FC" width="30" height="222"/>
	<rect x="339.5" y="101.4" fill="#57B9FC" width="30" height="305"/>
	<rect x="300.6" y="135.4" fill="#57B9FC" width="30" height="271"/>
	<rect x="145.4" y="404.7" fill="#57B9FC" width="30" height="1.4"/>
	<rect x="106.5" y="405.4" fill="#57B9FC" width="30" height="1"/>
	<rect x="650.1" y="240.4" fill="#57B9FC" width="30" height="166"/>
	<rect x="378.3" y="150.4" fill="#57B9FC" width="30" height="256"/>
	<rect x="417.1" y="204.7" fill="#57B9FC" width="30" height="201.8"/>
	<rect x="494.8" y="229.4" fill="#57B9FC" width="30" height="177"/>
	<rect x="455.9" y="216.4" fill="#57B9FC" width="30" height="190"/>
	<rect x="611.2" y="233.7" fill="#57B9FC" width="30" height="172.8"/>
	<rect x="533.6" y="241.7" fill="#57B9FC" width="30" height="164.8"/>
	<rect x="572.4" y="224.4" fill="#57B9FC" width="30" height="182"/>
	<rect x="805.4" y="196.8" fill="#57B9FC" width="30" height="209.6"/>
	<rect x="766.5" y="194.3" fill="#57B9FC" width="30" height="212.1"/>
	<rect x="688.9" y="206.4" fill="#57B9FC" width="30" height="200"/>
	<rect x="727.7" y="199" fill="#57B9FC" width="30" height="207.4"/>
</g>
<line fill="none" stroke="#EAEAE8" stroke-miterlimit="10" x1="835" y1="406.9" x2="27" y2="406.9"/>
<g>
	<g>
		<line fill="none" stroke="#EAEAE8" stroke-miterlimit="10" x1="832" y1="325.9" x2="831" y2="325.9"/>
		<line fill="none" stroke="#EAEAE8" stroke-miterlimit="10" stroke-dasharray="2,2" x1="829" y1="325.9" x2="29" y2="325.9"/>
		<line fill="none" stroke="#EAEAE8" stroke-miterlimit="10" x1="28" y1="325.9" x2="27" y2="325.9"/>
	</g>
</g>
<line fill="#FFFFFF" stroke="#169647" stroke-miterlimit="10" x1="835" y1="247.9" x2="27" y2="247.9"/>
<g>
	<g>
		<line fill="none" stroke="#EAEAE8" stroke-miterlimit="10" x1="832" y1="167.9" x2="831" y2="167.9"/>
		<line fill="none" stroke="#EAEAE8" stroke-miterlimit="10" stroke-dasharray="2,2" x1="829" y1="167.9" x2="29" y2="167.9"/>
		<line fill="none" stroke="#EAEAE8" stroke-miterlimit="10" x1="28" y1="167.9" x2="27" y2="167.9"/>
	</g>
</g>
<line fill="none" stroke="#EAEAE8" stroke-miterlimit="10" stroke-dasharray="2" x1="832" y1="87.9" x2="27" y2="87.9"/>
<rect x="26.3" y="329.9" fill="none" width="44" height="9.1"/>
<text transform="matrix(1 0 0 1 26.2946 337.2933)" fill="#7A7A7A" font-family="'Lato-Regular'" font-size="10">250,000</text>
<rect x="26.3" y="250.9" fill="none" width="44" height="9.1"/>
<text transform="matrix(1 0 0 1 26.2946 258.2933)" fill="#7A7A7A" font-family="'Lato-Regular'" font-size="10">500,000</text>
<rect x="26.3" y="171.9" fill="none" width="44" height="9.1"/>
<text transform="matrix(1 0 0 1 26.2946 179.2933)" fill="#7A7A7A" font-family="'Lato-Regular'" font-size="10">750,000</text>
<rect x="26.3" y="92.9" fill="none" width="49.2" height="7.5"/>
<text transform="matrix(1 0 0 1 26.2946 100.2933)" fill="#7A7A7A" font-family="'Lato-Regular'" font-size="10">1,000,000</text>
<rect x="166.3" y="413.9" fill="none" width="86.7" height="9.1"/>
<text transform="matrix(1 0 0 1 225.9823 420.556)" fill="#7A7A7A" font-family="'Lato-Regular'" font-size="9">Feb 13</text>
<rect x="49.9" y="413.9" fill="none" width="86.7" height="9.1"/>
<text transform="matrix(1 0 0 1 108.6296 420.556)" fill="#7A7A7A" font-family="'Lato-Regular'" font-size="9">Aug 12</text>
<rect x="88.7" y="413.9" fill="none" width="86.7" height="9.1"/>
<text transform="matrix(1 0 0 1 148.4341 420.556)" fill="#7A7A7A" font-family="'Lato-Regular'" font-size="9">Oct 12</text>
<rect x="360.5" y="413.9" fill="none" width="86.7" height="9.1"/>
<text transform="matrix(1 0 0 1 420.9373 420.556)" fill="#7A7A7A" font-family="'Lato-Regular'" font-size="9">Jun 13</text>
<rect x="515.7" y="413.9" fill="none" width="86.7" height="9.1"/>
<text transform="matrix(1 0 0 1 575.494 420.556)" fill="#7A7A7A" font-family="'Lato-Regular'" font-size="9">Oct 13</text>
<rect x="748.7" y="413.9" fill="none" width="86.7" height="9.1"/>
<text transform="matrix(1 0 0 1 808.4625 420.556)" fill="#7A7A7A" font-family="'Lato-Regular'" font-size="9">Apr 14</text>
<rect x="57" y="229.4" fill="none" width="192" height="27"/>
<text transform="matrix(1 0 0 1 80.3008 238.2669)" fill="#169647" font-family="'Lato-Italic'" font-size="12">Average over 500K, 100x increase</text>
<rect x="24" y="355.9" fill="none" width="192" height="27"/>
<text transform="matrix(1 0 0 1 138.9901 364.7669)" fill="#169647" font-family="'Lato-Italic'" font-size="12">Started Causely</text>
<g>
	<defs>
		<rect id="SVGID_1_" x="-335" y="0" width="335" height="468.8"/>
	</defs>
	<clipPath id="SVGID_2_">
		<use xlink:href="#SVGID_1_"  overflow="visible"/>
	</clipPath>
	<g id="tPOQYW.tif" clip-path="url(#SVGID_2_)">
		
			<image overflow="visible" width="1024" height="558" id="Layer_0_2_" xlink:href="EB60D74AD1550FE9.png"  transform="matrix(1 0 0 1 -356.3528 -47.1745)">
		</image>
	</g>
</g>
</svg>
