<?xml version="1.0" encoding="utf-8"?>
<!-- Generator: Adobe Illustrator 18.1.1, SVG Export Plug-In . SVG Version: 6.00 Build 0)  -->
<svg version="1.1" id="Layer_1" xmlns="http://www.w3.org/2000/svg" xmlns:xlink="http://www.w3.org/1999/xlink" x="0px" y="0px"
	 viewBox="0 0 225 225" enable-background="new 0 0 225 225" xml:space="preserve">
<rect x="-11.3" y="-9" fill="#EAEAE8" stroke="#FFFFFF" stroke-width="5" stroke-miterlimit="10" width="259" height="245.5"/>
<path fill="#4FCF5B" stroke="#EAEAE8" stroke-width="5" stroke-miterlimit="10" d="M148.1,116.6c-0.4,3.6-1.4,7.1-2.9,10.3
	l63.3,29.5c4.8-10.4,7.6-19.9,8.9-31.3L148.1,116.6z"/>
<path stroke="#EAEAE8" stroke-width="5" stroke-miterlimit="10" d="M145.2,126.9c-3,6.5-8.1,11.9-14.4,15.4l33.9,61.1
	c20.1-11.1,34.1-26.2,43.8-47L145.2,126.9z"/>
<path fill="#FFFFFF" stroke="#EAEAE8" stroke-width="5" stroke-miterlimit="10" d="M130.8,142.3c-4.9,2.7-10.6,4.3-16.6,4.3
	c-16.6,0-30.4-11.9-33.5-27.6l-68.5,13.4c11,56.4,65.6,93.1,121.9,82.2c11.3-2.2,20.5-5.6,30.6-11.1L130.8,142.3z"/>
<path fill="#57B9FC" stroke="#EAEAE8" stroke-width="5" stroke-miterlimit="10" d="M126.9,9.3C69.9,2.3,18,42.9,11.1,99.9
	c-1.4,11.4-1,21.2,1.2,32.5L80.7,119c-0.4-2.1-0.6-4.3-0.6-6.5c0-18.8,15.3-34.1,34.1-34.1c18.8,0,34.1,15.3,34.1,34.1
	c0,1.4-0.1,2.8-0.3,4.1l69.4,8.5C224.4,68.1,183.9,16.3,126.9,9.3z"/>
</svg>
