<?xml version="1.0" encoding="utf-8"?>
<!-- Generator: Adobe Illustrator 18.1.0, SVG Export Plug-In . SVG Version: 6.00 Build 0)  -->
<svg version="1.1" xmlns="http://www.w3.org/2000/svg" xmlns:xlink="http://www.w3.org/1999/xlink" x="0px" y="0px"
	 viewBox="-410.7 327.1 400.4 150.3" enable-background="new -410.7 327.1 400.4 150.3" xml:space="preserve">
<g id="Layer_1">
	<path fill="#010101" d="M-367.2,382.3c1.5-3,3.6-5.5,6.3-7.6c2.6-2.1,5.7-3.6,9.2-4.6c3.5-1.1,7.2-1.6,11.1-1.6
		c2.6,0,4.9,0.2,7,0.6c2.2,0.4,4.1,0.9,5.7,1.5c1.7,0.5,3.1,1.2,4.4,1.7c1.3,0.5,2.3,1.1,2.9,1.5l-2.8,9.9h-0.6
		c-1-1.2-2.2-2.3-3.6-3.2c-1.4-1-2.8-1.7-4.3-2.4s-3.1-1.1-4.9-1.5s-3.3-0.5-5.1-0.5c-2.4,0-4.6,0.3-6.9,1c-2.3,0.6-4.2,1.6-5.9,3
		c-1.7,1.3-3.1,3-4.2,5.1c-1.1,2.1-1.6,4.4-1.6,7.1c0,2.7,0.5,5,1.6,7s2.5,3.7,4.2,5s3.8,2.3,6,2.9c2.3,0.6,4.6,1,7.1,1
		c1.9,0,3.8-0.2,5.7-0.5c1.9-0.3,3.8-0.9,5.5-1.6s3.3-1.6,5-2.7c1.6-1.1,2.8-2.3,4-3.7l0.5,0.2l-3.5,12.1c-2.4,1.4-5,2.4-8,3.1
		c-2.9,0.6-5.9,1.1-9.1,1.1c-3.8,0-7.3-0.5-10.7-1.5c-3.3-1-6.4-2.5-9-4.4c-2.6-1.9-4.6-4.4-6.2-7.3c-1.5-2.9-2.3-6.4-2.3-10.3
		C-369.4,388.7-368.7,385.4-367.2,382.3L-367.2,382.3z"/>
	<path fill="#010101" d="M-314.9,412.6c0.5-0.4,1.2-1.2,1.9-2.3c0.6-1.1,1.4-2.2,1.9-3.5c0.6-1.2,1.2-2.4,1.7-3.5l1.2-2.5l8.8-20
		c0.2-0.5,0.5-1.2,0.8-1.8c0.2-0.6,0.5-1.4,0.6-2.1c0.2-0.6,0.2-1.3,0.2-1.9c-0.1-0.6-0.3-1.2-0.6-1.6v-0.6h11.8v0.5
		c-0.3,0.4-0.3,1.2-0.1,2.2c0.2,1,0.6,2.1,1.2,3.2l10.4,22.3l1.2,2.5c0.5,1.1,1.1,2.3,1.7,3.5c0.6,1.2,1.3,2.4,1.9,3.5
		c0.6,1.1,1.2,1.8,1.7,2.3v0.5H-279v-0.5c0.3-0.4,0.5-1,0.5-1.6s-0.1-1.3-0.3-1.9c-0.2-0.6-0.4-1.3-0.8-1.9l-0.8-1.9l-1.1-2.3h-20.7
		l-1,2.3l-0.8,1.8c-0.3,0.6-0.5,1.4-0.8,2.1s-0.3,1.3-0.3,1.9c0,0.6,0.1,1.1,0.4,1.6v0.5h-10.4V412.6L-314.9,412.6z M-292,379h-0.2
		l-8,18.7h16.4L-292,379z"/>
	<path fill="#010101" d="M-256.6,400.7c0.4,1.5,1.1,2.8,2.1,4c1,1.2,2.4,2.1,4,2.6c1.7,0.6,3.8,1,6.4,1s4.8-0.3,6.4-1
		c1.7-0.6,3-1.5,4.1-2.6c1-1.1,1.7-2.5,2.2-4c0.4-1.5,0.6-3.1,0.6-5v-14.9c0-0.5,0-1.2,0-1.8s-0.1-1.4-0.2-2.1s-0.3-1.4-0.6-2.1
		c-0.3-0.6-0.6-1.2-1.3-1.6v-0.4h10.8v0.5c-0.5,0.4-1,1-1.2,1.6c-0.3,0.6-0.5,1.3-0.6,2.1s-0.2,1.4-0.2,2.1s0,1.3,0,1.8v15.9
		c0,2.7-0.4,5-1.4,7.1c-0.9,2.1-2.2,3.9-3.9,5.3c-1.7,1.4-3.8,2.5-6.2,3.2c-2.5,0.8-5.2,1.1-8.3,1.1c-3.1,0-5.8-0.3-8.3-1.1
		s-4.5-1.8-6.3-3.2c-1.7-1.4-3-3.2-3.9-5.3c-0.9-2.1-1.4-4.4-1.4-7.1v-16c0-0.5,0-1.2,0-1.8s-0.1-1.4-0.2-2.1
		c-0.1-0.6-0.3-1.4-0.6-2.1c-0.3-0.6-0.6-1.2-1.2-1.6v-0.4h10.8v0.5c-0.5,0.4-1,1-1.3,1.6s-0.5,1.3-0.6,2.1
		c-0.1,0.6-0.2,1.4-0.2,2.1s0,1.3,0,1.8v14.9C-257.3,397.5-257.1,399.2-256.6,400.7L-256.6,400.7z"/>
	<path fill="#010101" d="M-181.4,382.1c-1.6-1.5-3.7-2.7-6.3-3.5c-2.6-0.8-5.4-1.1-8.6-1.1c-4.4,0-7.7,0.6-9.7,1.9
		c-2,1.3-3.1,2.8-3.1,4.8c0,1.2,0.3,2.1,1.1,2.7c0.6,0.6,1.6,1.2,2.9,1.5c1.2,0.3,2.6,0.5,4.2,0.8c1.6,0.1,3.3,0.2,5.2,0.3
		c1.5,0.1,3,0.2,4.5,0.3c1.5,0.1,3,0.3,4.4,0.6c1.4,0.3,2.7,0.6,4,1.1c1.3,0.4,2.4,1.1,3.2,1.9c1,0.8,1.7,1.7,2.2,2.9
		c0.5,1.2,0.8,2.6,0.8,4.2c0,4.2-1.7,7.3-5.3,9.6c-3.6,2.3-8.6,3.3-15.3,3.3c-2.7,0-5.1-0.2-7-0.5s-3.8-0.8-5.3-1.3
		s-2.8-1.1-3.9-1.7l-2.9-1.7l2.9-5.8h0.5c1.6,1.7,4,3,7,4.1c3,1.1,6.5,1.5,10.2,1.5c2.2,0,4-0.2,5.5-0.5c1.5-0.3,2.8-0.9,3.9-1.5
		c1-0.6,1.7-1.3,2.3-2.2c0.5-0.9,0.8-1.7,0.8-2.7c0-1.2-0.3-2.1-1-2.8c-0.6-0.6-1.5-1.3-2.6-1.6c-1.1-0.4-2.3-0.6-3.7-0.9
		c-1.4-0.2-2.8-0.3-4.3-0.3c-2.4-0.1-4.9-0.3-7.3-0.5s-4.8-0.6-6.7-1.4c-2.1-0.6-3.7-1.7-5-3c-1.3-1.4-1.9-3.2-1.9-5.6
		c0-2.2,0.5-4,1.5-5.6c1-1.6,2.5-2.9,4.2-4c1.8-1.1,3.9-1.9,6.3-2.5c2.4-0.5,5-0.9,7.8-0.9c2.5,0,4.6,0.2,6.7,0.5
		c2.1,0.3,3.8,0.8,5.4,1.3c1.6,0.5,2.8,1,3.9,1.4l2.2,1l-3,5.7h-0.4L-181.4,382.1z"/>
	<path fill="#010101" d="M-169.7,413v-0.5c0.4-0.4,0.9-1.2,1.1-2.3c0.2-1.1,0.4-2.2,0.6-3.5c0.1-1.2,0.2-2.4,0.2-3.5s0-1.9,0-2.5
		v-20c0-0.5,0-1.2,0-1.8s-0.1-1.4-0.2-2.1s-0.3-1.4-0.6-2.1c-0.3-0.6-0.6-1.2-1.1-1.6v-0.4h33.9l2.3,7.6l-0.4,0.3
		c-0.6-0.4-1.5-0.9-2.5-1.2c-1-0.3-2.2-0.5-3.3-0.8s-2.6-0.3-4-0.4c-1.4-0.1-2.8-0.1-4.2-0.1h-13.2v12.2h24.8l0.2,0.4l-4,6.4h-0.5
		c-0.3-0.3-0.9-0.5-1.5-0.8s-1.3-0.3-2.1-0.5c-0.8-0.1-1.5-0.2-2.4-0.3c-0.9-0.1-1.6-0.1-2.4-0.1h-12.2v12.2h9.8
		c1.2,0,2.6,0,4.3-0.1s3.6-0.2,5.4-0.3c1.8-0.2,3.7-0.4,5.4-0.8c1.7-0.3,3.2-0.8,4.5-1.2l0.3,0.3l-4.4,7.5h-33.9V413z"/>
	<path fill="#010101" d="M-124.3,413v-0.5c0.4-0.4,0.9-1.2,1.1-2.3c0.2-1.1,0.4-2.2,0.6-3.5c0.1-1.2,0.2-2.4,0.2-3.5s0-1.9,0-2.5
		v-20c0-0.5,0-1.2,0-1.8s-0.1-1.4-0.2-2.1c-0.1-0.6-0.3-1.4-0.6-2.1s-0.6-1.2-1.1-1.6v-0.4h10.7v0.5c-0.5,0.4-1,1-1.3,1.6
		s-0.5,1.3-0.6,2.1c-0.1,0.8-0.2,1.4-0.2,2.1c0,0.6,0,1.3,0,1.8v26.9h6.4c0.3,0,1,0,1.9,0c1,0,2.1,0,3.3-0.1
		c1.3-0.1,2.7-0.1,4.2-0.2c1.5-0.1,3-0.2,4.5-0.4c1.5-0.2,2.9-0.4,4.3-0.6c1.4-0.2,2.6-0.5,3.6-1l0.3,0.3l-4.3,7.5h-32.8L-124.3,413
		z"/>
	<path fill="#010101" d="M-83,373.3c-0.2,0.4-0.2,1,0,1.6c0.2,0.6,0.4,1.3,0.9,2.1c0.4,0.6,0.9,1.4,1.3,2.1l1.3,1.8l6.9,9.4h0.2
		l6.9-9.4l1.3-1.8c0.4-0.6,0.9-1.4,1.3-2.1c0.3-0.6,0.6-1.4,0.8-2.1c0.2-0.6,0.1-1.2-0.1-1.6v-0.4h10.5v0.5c-0.5,0.4-1.1,1-1.7,1.6
		s-1.2,1.3-1.8,2.1l-1.7,2.1l-1.4,1.8l-11,14.9v5.1c0,0.5,0,1.4,0,2.5c0,1.1,0.1,2.3,0.2,3.5c0.1,1.2,0.3,2.4,0.5,3.5
		c0.2,1.1,0.6,1.8,1.1,2.3v0.5h-10.4v-0.5c0.4-0.4,0.9-1.2,1.1-2.3c0.2-1.1,0.4-2.2,0.5-3.5c0.1-1.2,0.2-2.4,0.2-3.5
		c0-1.1,0-1.9,0-2.5v-5.2L-89,379c-0.5-0.6-1.1-1.4-1.7-2.1l-1.5-1.9c-0.6-0.6-1.2-1.2-1.8-1.7v-0.4h11L-83,373.3L-83,373.3z"/>
	<g>
		<path fill="#010101" d="M-163.2,423.3h-1.5c-0.5,0-0.8,0.1-1.1,0.3c-0.2,0.2-0.4,0.5-0.4,1l-0.2,1.1h2.3l-0.2,1h-2.3l-1,7.2
			c-0.2,1.4-1,2.1-2.3,2.1c-0.5,0-1.1,0-1.7-0.1l0.2-1h1.1c0.5,0,0.8-0.1,1-0.3c0.2-0.2,0.4-0.5,0.4-1l1-7h-1.3l0.1-0.9l1.3-0.1
			l0.2-1.3c0.2-1.4,1-2.1,2.4-2.1c0.9,0,1.5,0,2.1,0.1L-163.2,423.3z"/>
		<path fill="#010101" d="M-162.3,426.4c0.6-0.6,1.5-0.9,2.7-0.9c1.2,0,2.1,0.3,2.6,0.9c0.5,0.6,0.6,1.6,0.4,3
			c-0.2,1.4-0.6,2.4-1.2,2.9s-1.5,0.9-2.7,0.9c-1.2,0-2.1-0.3-2.6-0.9c-0.5-0.6-0.6-1.6-0.4-3C-163.3,428-162.9,427-162.3,426.4z
			 M-159.6,426.6c-0.8,0-1.4,0.2-1.8,0.6c-0.4,0.4-0.6,1.1-0.8,2.2c-0.2,1-0.1,1.8,0.1,2.1s0.7,0.6,1.5,0.6c0.8,0,1.4-0.2,1.8-0.6
			c0.4-0.4,0.6-1.1,0.8-2.2c0.2-1,0.1-1.8-0.1-2.1C-158.3,426.8-158.8,426.6-159.6,426.6z"/>
		<path fill="#010101" d="M-149.5,425.5l-0.3,1.2h-0.4c-0.4,0-0.8,0.1-1.3,0.4s-1,0.6-1.8,1.2l-0.7,4.7h-1.3l1-7.3h1l-0.1,1.7
			c1.3-1.2,2.4-1.9,3.4-1.9H-149.5z"/>
		<path fill="#010101" d="M-140.1,431.9l0.1,0.9c-0.7,0.3-1.7,0.4-3,0.4c-1.3,0-2.1-0.3-2.6-1c-0.5-0.6-0.6-1.7-0.4-3
			c0.2-1.4,0.6-2.4,1.2-2.9c0.6-0.5,1.5-0.8,2.8-0.8c1.1,0,1.9,0.2,2.3,0.6s0.6,1,0.4,1.8c-0.1,0.7-0.4,1.2-0.8,1.5s-1.1,0.5-2,0.6
			l-2.7,0.2c0,0.8,0.1,1.3,0.4,1.6c0.3,0.3,0.8,0.4,1.5,0.4C-141.9,432.1-141.1,432.1-140.1,431.9z M-144.7,429.2l2.6-0.3
			c0.5,0,0.9-0.1,1.1-0.3c0.2-0.2,0.4-0.5,0.4-0.9c0.1-0.5,0-0.8-0.2-1c-0.2-0.1-0.7-0.2-1.4-0.2c-0.8,0-1.4,0.2-1.7,0.5
			C-144.2,427.4-144.5,428.1-144.7,429.2z"/>
		<path fill="#010101" d="M-132.5,432l0.1,0.9c-0.8,0.2-1.6,0.4-2.5,0.4c-1.3,0-2.2-0.3-2.6-0.9c-0.5-0.6-0.6-1.6-0.4-3
			c0.2-1.4,0.6-2.4,1.2-2.9c0.6-0.6,1.5-0.8,2.8-0.8c1,0,1.7,0.1,2.3,0.4l-0.2,0.8c-0.5,0-1.2-0.1-1.9-0.1c-0.9,0-1.6,0.2-2,0.6
			c-0.4,0.4-0.7,1.1-0.8,2.2c-0.1,1.1-0.1,1.8,0.2,2.2c0.3,0.3,0.8,0.5,1.7,0.5C-133.9,432.1-133.2,432.1-132.5,432z"/>
		<path fill="#010101" d="M-129.6,426.4c0.6-0.6,1.5-0.9,2.7-0.9c1.2,0,2.1,0.3,2.6,0.9c0.5,0.6,0.6,1.6,0.4,3
			c-0.2,1.4-0.6,2.4-1.2,2.9s-1.5,0.9-2.7,0.9c-1.2,0-2.1-0.3-2.6-0.9c-0.5-0.6-0.6-1.6-0.4-3C-130.6,428-130.2,427-129.6,426.4z
			 M-126.9,426.6c-0.8,0-1.4,0.2-1.8,0.6c-0.4,0.4-0.6,1.1-0.8,2.2c-0.2,1-0.1,1.8,0.1,2.1s0.7,0.6,1.5,0.6c0.8,0,1.4-0.2,1.8-0.6
			c0.4-0.4,0.6-1.1,0.8-2.2c0.2-1,0.1-1.8-0.1-2.1C-125.6,426.8-126.1,426.6-126.9,426.6z"/>
		<path fill="#010101" d="M-120.5,425.7l-0.1,1.6c1.2-1.2,2.2-1.8,3.2-1.8c0.6,0,1,0.1,1.3,0.4c0.3,0.3,0.4,0.7,0.4,1.2
			c1.1-1.1,2.1-1.7,3.1-1.7c0.6,0,1.1,0.2,1.4,0.5c0.3,0.4,0.4,0.9,0.3,1.5l-0.8,5.5h-1.3l0.7-5.1c0.1-0.5,0-0.8-0.1-1
			c-0.1-0.2-0.4-0.3-0.8-0.3c-0.4,0-0.7,0.1-1.1,0.4c-0.4,0.2-0.9,0.7-1.6,1.3l-0.7,4.7h-1.2l0.7-5.1c0.1-0.5,0-0.8-0.1-1
			c-0.1-0.2-0.4-0.3-0.8-0.3c-0.4,0-0.7,0.1-1.1,0.4c-0.4,0.2-0.9,0.7-1.6,1.3l-0.7,4.8h-1.3l1-7.3H-120.5z"/>
		<path fill="#010101" d="M-107.4,425.7l-0.1,1.6c1.2-1.2,2.2-1.8,3.2-1.8c0.6,0,1,0.1,1.3,0.4c0.3,0.3,0.4,0.7,0.4,1.2
			c1.1-1.1,2.1-1.7,3.1-1.7c0.6,0,1.1,0.2,1.4,0.5c0.3,0.4,0.4,0.9,0.3,1.5l-0.8,5.5h-1.3l0.7-5.1c0.1-0.5,0-0.8-0.1-1
			c-0.1-0.2-0.4-0.3-0.8-0.3c-0.4,0-0.7,0.1-1.1,0.4c-0.4,0.2-0.9,0.7-1.6,1.3l-0.7,4.7h-1.2l0.7-5.1c0.1-0.5,0-0.8-0.1-1
			c-0.1-0.2-0.4-0.3-0.8-0.3c-0.4,0-0.7,0.1-1.1,0.4c-0.4,0.2-0.9,0.7-1.6,1.3l-0.7,4.8h-1.3l1-7.3H-107.4z"/>
		<path fill="#010101" d="M-90.3,431.9l0.1,0.9c-0.7,0.3-1.7,0.4-3,0.4c-1.3,0-2.1-0.3-2.6-1c-0.5-0.6-0.6-1.7-0.4-3
			c0.2-1.4,0.6-2.4,1.2-2.9c0.6-0.5,1.5-0.8,2.8-0.8c1.1,0,1.9,0.2,2.3,0.6s0.6,1,0.4,1.8c-0.1,0.7-0.4,1.2-0.8,1.5s-1.1,0.5-2,0.6
			l-2.7,0.2c0,0.8,0.1,1.3,0.4,1.6c0.3,0.3,0.8,0.4,1.5,0.4C-92.1,432.1-91.2,432.1-90.3,431.9z M-94.9,429.2l2.6-0.3
			c0.5,0,0.9-0.1,1.1-0.3c0.2-0.2,0.4-0.5,0.4-0.9c0.1-0.5,0-0.8-0.2-1c-0.2-0.1-0.7-0.2-1.4-0.2c-0.8,0-1.4,0.2-1.7,0.5
			C-94.4,427.4-94.7,428.1-94.9,429.2z"/>
		<path fill="#010101" d="M-82.7,425.5l-0.3,1.2h-0.4c-0.4,0-0.8,0.1-1.3,0.4s-1,0.6-1.8,1.2L-87,433h-1.3l1-7.3h1l-0.1,1.7
			c1.3-1.2,2.4-1.9,3.4-1.9H-82.7z"/>
		<path fill="#010101" d="M-76.9,432l0.1,0.9c-0.8,0.2-1.6,0.4-2.5,0.4c-1.3,0-2.2-0.3-2.6-0.9c-0.5-0.6-0.6-1.6-0.4-3
			c0.2-1.4,0.6-2.4,1.2-2.9c0.6-0.6,1.5-0.8,2.8-0.8c1,0,1.7,0.1,2.3,0.4l-0.2,0.8c-0.5,0-1.2-0.1-1.9-0.1c-0.9,0-1.6,0.2-2,0.6
			c-0.4,0.4-0.7,1.1-0.8,2.2c-0.1,1.1-0.1,1.8,0.2,2.2c0.3,0.3,0.8,0.5,1.7,0.5C-78.3,432.1-77.5,432.1-76.9,432z"/>
		<path fill="#010101" d="M-69.3,431.9l0.1,0.9c-0.7,0.3-1.7,0.4-3,0.4c-1.3,0-2.1-0.3-2.6-1c-0.5-0.6-0.6-1.7-0.4-3
			c0.2-1.4,0.6-2.4,1.2-2.9c0.6-0.5,1.5-0.8,2.8-0.8c1.1,0,1.9,0.2,2.3,0.6s0.6,1,0.4,1.8c-0.1,0.7-0.4,1.2-0.8,1.5s-1.1,0.5-2,0.6
			l-2.7,0.2c0,0.8,0.1,1.3,0.4,1.6c0.3,0.3,0.8,0.4,1.5,0.4C-71.1,432.1-70.2,432.1-69.3,431.9z M-73.8,429.2l2.6-0.3
			c0.5,0,0.9-0.1,1.1-0.3c0.2-0.2,0.4-0.5,0.4-0.9c0.1-0.5,0-0.8-0.2-1c-0.2-0.1-0.7-0.2-1.4-0.2c-0.8,0-1.4,0.2-1.7,0.5
			C-73.4,427.4-73.7,428.1-73.8,429.2z"/>
	</g>
</g>
<g id="Layer_2">
</g>
<g id="Layer_3">
</g>
</svg>
