<?xml version="1.0" encoding="utf-8"?>
<!-- Generated by IcoMoon.io -->
<!DOCTYPE svg PUBLIC "-//W3C//DTD SVG 1.1//EN" "http://www.w3.org/Graphics/SVG/1.1/DTD/svg11.dtd">
<svg version="1.1" xmlns="http://www.w3.org/2000/svg" xmlns:xlink="http://www.w3.org/1999/xlink" width="512" height="512" viewBox="0 0 512 512"><g id="icomoon-ignore">
</g>
<path d="M149.7 296.5c-3.6-9.2-5.3-17.8-5.7-25.6-12.8-5.3-45.9-21.3-71.8-51.9-3.2 11.7-9.2 36.6-7.1 56.9 28.8 18.8 70.4 20.3 82.8 20.3 0.7 0.3 1.4 0.3 1.8 0.3v0z"></path>
<path d="M164.3 325.3c-4.6-7.5-8.5-14.9-11.4-21.7-1.1 0.4-10 1.4-22.8 1.4-13.5 0-33.8-1.4-54.8-7.8 1.4 7.8 4.6 21.7 11.7 30.9 10 2.5 20.6 3.6 31.6 3.6 22.6 0 40.3-4.9 45.7-6.4v0z"></path>
<path d="M167.8 331.4c-2.1 0.7-28.1 11.7-59.7 11.7-1.1 0-2.1 0-2.8 0 2.5 5.3 7.8 14.6 18.1 21.3 25.2-2.1 48.4-10 58.3-13.5-5-6.7-9.6-13.1-13.9-19.5v0z"></path>
<path d="M144.4 262c1.1-18.1 6.4-35.9 16-51.2-22-27-33.8-63.3-35.6-107.4-12.8 17.4-41.6 59-50.1 87.1 16.3 36.3 54 61.9 69.7 71.5v0z"></path>
<path d="M195.6 368.4c-3.2-3.6-6-7.5-8.9-11-6.4 3.6-21.3 10.7-42 14.9 5 4.3 13.2 10.3 22.8 12.4 12.8-3.6 22.8-10.3 28.8-15.6-0.4 0-0.4-0.4-0.7-0.7v0z"></path>
<path d="M434.5 190.6c-8.5-28.1-37.3-70-50.1-87.5-1.8 44.1-13.5 80.4-35.6 107.4 9.6 15.6 15.3 33.1 16.4 51.6 46.2-27.8 64.3-60.1 69.3-71.5v0z"></path>
<path d="M356.6 303.6c-3.2 7.1-7.1 14.6-11.7 22 6.4 1.8 23.8 6 44.8 6 11.4 0 22.4-1.1 32.4-3.6 7.1-9.2 10.3-23.5 11.7-30.9-21 6.4-41.2 7.8-55.1 7.8-11.8 0.2-19.9-0.9-22.1-1.3v0z"></path>
<path d="M340.6 332.1c-3.9 6-8.5 12.4-13.2 18.8 10 3.6 33.1 11.4 58 13.5 10.7-7.1 16-16 18.1-21.3-1.1 0-2.1 0-3.2 0-28.7 0-54.3-8.9-59.7-11v0z"></path>
<path d="M436.6 219c-26 30.2-59 46.2-71.5 51.6-0.4 7.8-2.1 16.4-5.7 25.6 0.4 0 0.7 0 1.1 0 12.4 0 54.4-1.4 83.2-20.3 2.5-19.9-3.9-45.1-7.1-56.9v0z"></path>
<path d="M314 368.4c-0.4 0.4-0.7 0.7-1.1 1.1 6 5 16.4 12.1 28.8 15.3 9.6-2.1 17.8-8.2 22.8-12.4-20.6-4.3-35.6-11.4-42-14.9-2.9 3.4-5.7 7.3-8.5 10.9v0z"></path>
<path d="M254.6 172.4c-53 0-96 43-96 96s96 141.5 96 141.5 96-88.5 96-141.5c0-52.9-43-96-96-96zM254.9 333.5c-38.4 0-68.6-31.6-69-68.6 0-39.1 32-69 68.6-69 24.2 0 46.2 12.8 58.3 32.7-3.6 13.5-10 23.1-21 33.4 0-15.3-14.2-38-37.3-38-15.6 0.4-37.7 14.2-37.7 41.2 0 24.2 17.8 39.8 38 40.2 34.5 0.7 58-55.5 60.1-73.6 5.3 9.6 8.2 20.6 8.2 33.1 0.1 41.9-32.3 68.6-68.2 68.6v0z"></path>
</svg>
