<?xml version="1.0" encoding="utf-8"?>
<!-- Generated by IcoMoon.io -->
<!DOCTYPE svg PUBLIC "-//W3C//DTD SVG 1.1//EN" "http://www.w3.org/Graphics/SVG/1.1/DTD/svg11.dtd">
<svg version="1.1" xmlns="http://www.w3.org/2000/svg" xmlns:xlink="http://www.w3.org/1999/xlink" width="512" height="512" viewBox="0 0 512 512"><g id="icomoon-ignore">
</g>
<path d="M495.644 284.445c4.622-35.2-11.022-82.844-11.022-82.844-39.822 51.2-98.844 71.822-98.844 71.822s72.534-37.334 98.844-97.778c-13.156-46.222-71.466-122.311-71.466-122.311 0 73.6-22.045 119.822-47.644 148.978-23.111-35.911-63.289-60.089-109.511-60.089-45.867 0-86.4 24.178-109.511 60.445-25.6-29.155-47.644-75.378-47.644-149.333 0 0-58.311 75.733-71.466 122.311 26.311 60.445 98.844 97.778 98.844 97.778s-58.666-20.622-98.844-71.822c0 0-15.645 47.644-11.022 82.844 43.733 30.222 109.867 28.089 109.867 28.089s-46.934 7.111-98.844-11.022c0 0 3.2 31.289 17.778 49.067 52.267 12.8 98.133-2.489 98.133-2.489s-35.2 15.289-79.289 12.445c0 0 4.978 21.689 28.089 35.911 42.666-3.2 81.778-19.911 81.778-19.911s-24.889 15.644-63.644 22.045c0 0 16.356 18.489 37.689 23.111 23.466-6.045 40.178-21.334 44.8-25.956 0 0 0 0 0.356 0.356-3.2 4.267-13.155 16.711-30.934 24.534 22.756 11.022 45.155 11.378 61.511 9.245 15.289 15.644 25.956 25.956 27.022 26.666 1.778 1.422 3.911 2.134 6.045 2.134s4.267-0.711 6.045-2.134c0.711-0.711 11.733-10.666 27.022-26.666 16.356 2.134 38.4 1.778 61.156-9.245-17.422-7.822-27.378-19.911-30.578-24.534 0 0 0-0.356 0.356-0.356 4.978 4.622 21.689 19.911 44.8 25.956 21.334-4.622 37.689-23.111 37.689-23.111-38.755-6.4-63.644-22.044-63.644-22.044s38.755 16.356 81.778 19.911c23.111-14.222 28.089-35.911 28.089-35.911-44.089 2.844-79.289-12.445-79.289-12.445s45.511 15.289 98.133 2.489c14.222-17.422 17.778-49.067 17.778-49.067-51.555 17.778-98.844 11.022-98.844 11.022s64.711 1.778 108.445-28.089zM256 449.778c0 0-120.889-111.289-120.889-178.134s54.044-120.889 120.889-120.889c66.844 0 120.889 54.044 120.889 120.889s-120.889 178.134-120.889 178.134z" fill="rgb(68, 68, 68)"></path>
<path d="M256.356 317.866c-25.244-0.356-46.934-19.555-46.934-50.134 0-33.422 27.022-50.489 46.934-50.489 28.445 0 46.222 28.089 46.578 47.289 13.866-13.155 21.689-24.889 26.311-41.6-15.289-24.889-42.666-40.889-72.889-40.889-45.867 0-85.689 37.333-85.689 86.044 0 45.866 38.044 85.334 85.689 85.334 44.8 0 84.978-33.422 84.978-86.045 0-14.934-3.555-28.8-10.311-40.889-2.489 22.756-32 92.445-74.666 91.378z" fill="rgb(68, 68, 68)"></path>
</svg>
