<?xml version="1.0" encoding="utf-8"?>
<!-- Generator: Adobe Illustrator 18.1.0, SVG Export Plug-In . SVG Version: 6.00 Build 0)  -->
<svg version="1.1" xmlns="http://www.w3.org/2000/svg" xmlns:xlink="http://www.w3.org/1999/xlink" x="0px" y="0px"
	 viewBox="58.7 190.4 300.7 51.1" enable-background="new 58.7 190.4 300.7 51.1" xml:space="preserve">
<g id="Layer_1">
	<g>
		<path fill="#010101" d="M60,241.3c0.1-0.1,0.2-0.2,0.3-0.5c0.1-0.2,0.1-0.5,0.1-0.7c0-0.3,0-0.5,0-0.7s0-0.4,0-0.5v-4.1
			c0-0.1,0-0.2,0-0.4c0-0.1,0-0.3,0-0.4c0-0.1-0.1-0.3-0.1-0.4c-0.1-0.1-0.1-0.3-0.3-0.3V233h5.5c0.4,0,0.8,0.1,1.1,0.2
			s0.6,0.3,0.8,0.5c0.2,0.2,0.4,0.4,0.5,0.7s0.2,0.6,0.2,0.9c0,0.4-0.1,0.8-0.3,1.1s-0.5,0.5-0.8,0.7v0c0.2,0.1,0.3,0.1,0.5,0.2
			s0.3,0.2,0.4,0.4s0.2,0.4,0.3,0.6c0.1,0.2,0.1,0.5,0.1,0.8c0,0.4-0.1,0.7-0.2,1c-0.1,0.3-0.4,0.5-0.6,0.7
			c-0.3,0.2-0.6,0.3-0.9,0.4c-0.4,0.1-0.7,0.1-1.1,0.1L60,241.3L60,241.3z M62.9,236.4c0.2,0.1,0.4,0.1,0.6,0.2c0.2,0,0.4,0,0.6,0
			h1.4c0.2,0,0.4,0,0.7-0.1c0.2-0.1,0.4-0.2,0.5-0.3c0.2-0.1,0.3-0.3,0.4-0.4c0.1-0.2,0.1-0.4,0.1-0.6c0-0.2,0-0.4-0.1-0.6
			c-0.1-0.2-0.2-0.3-0.4-0.4c-0.2-0.1-0.3-0.2-0.5-0.3c-0.2-0.1-0.4-0.1-0.7-0.1h-4.1v6.7h4.2c0.2,0,0.5,0,0.7-0.1
			c0.2-0.1,0.4-0.1,0.6-0.3c0.2-0.1,0.3-0.3,0.4-0.5c0.1-0.2,0.2-0.4,0.2-0.7c0-0.3-0.1-0.5-0.2-0.7c-0.1-0.2-0.2-0.4-0.4-0.5
			c-0.2-0.1-0.4-0.2-0.6-0.3c-0.2-0.1-0.5-0.1-0.7-0.1h-2.3c-0.2,0-0.4,0-0.6,0c-0.2,0-0.3,0.1-0.4,0.1l-0.1,0L62.9,236.4
			L62.9,236.4z"/>
		<path fill="#010101" d="M71,233.1c0,0.1,0,0.2,0,0.3c0,0.1,0.1,0.3,0.2,0.4c0.1,0.1,0.2,0.3,0.3,0.4l0.3,0.4l1.7,2.2h0l1.7-2.2
			l0.3-0.4c0.1-0.1,0.2-0.3,0.3-0.4c0.1-0.1,0.1-0.3,0.2-0.4c0-0.1,0-0.3,0-0.3V233h1.7v0.1c-0.1,0.1-0.2,0.2-0.4,0.3
			c-0.1,0.1-0.2,0.3-0.4,0.4l-0.3,0.4l-0.3,0.4l-2.3,3.1v1.1c0,0.1,0,0.3,0,0.5s0,0.5,0,0.7c0,0.3,0.1,0.5,0.1,0.7
			c0.1,0.2,0.1,0.4,0.2,0.5v0.1h-1.7v-0.1c0.1-0.1,0.2-0.2,0.2-0.5c0-0.2,0.1-0.5,0.1-0.7s0-0.5,0-0.7s0-0.4,0-0.5v-1.1l-2.3-3.1
			l-0.3-0.4c-0.1-0.1-0.2-0.3-0.3-0.4c-0.1-0.1-0.2-0.3-0.4-0.4s-0.2-0.2-0.4-0.3V233L71,233.1L71,233.1z"/>
		<path fill="#010101" d="M83.7,235.4c0.3-0.5,0.6-1,1.1-1.4s1-0.7,1.6-0.8c0.6-0.2,1.3-0.3,2-0.3c0.4,0,0.8,0,1.2,0.1
			c0.4,0.1,0.7,0.1,1,0.2s0.5,0.2,0.7,0.3s0.4,0.2,0.5,0.2l-0.4,1.2h-0.1c-0.2-0.2-0.4-0.4-0.6-0.5c-0.2-0.1-0.5-0.3-0.8-0.3
			c-0.3-0.1-0.6-0.1-0.9-0.2s-0.6-0.1-0.8-0.1c-0.5,0-1.1,0.1-1.5,0.2c-0.5,0.1-0.9,0.4-1.3,0.6c-0.4,0.3-0.7,0.6-0.9,1.1
			c-0.2,0.4-0.3,0.9-0.3,1.5c0,0.6,0.1,1.1,0.3,1.5c0.2,0.4,0.5,0.8,0.9,1.1s0.8,0.5,1.3,0.6c0.5,0.1,1,0.2,1.5,0.2
			c0.3,0,0.6,0,0.9-0.1c0.3,0,0.6-0.1,0.9-0.2c0.3-0.1,0.6-0.3,0.8-0.4c0.3-0.2,0.5-0.4,0.7-0.7l0.1,0l-0.5,1.7
			c-0.4,0.2-0.8,0.4-1.3,0.5c-0.5,0.1-1,0.2-1.5,0.2c-0.7,0-1.3-0.1-1.9-0.3c-0.6-0.2-1.1-0.4-1.6-0.8c-0.5-0.4-0.8-0.8-1.1-1.3
			s-0.4-1.2-0.4-1.9C83.3,236.5,83.4,235.9,83.7,235.4z"/>
		<path fill="#010101" d="M93,241.3c0.1-0.1,0.3-0.2,0.4-0.5c0.1-0.2,0.3-0.5,0.4-0.7c0.1-0.3,0.3-0.5,0.4-0.7
			c0.1-0.2,0.2-0.4,0.2-0.5l1.8-4.1c0.1-0.1,0.1-0.2,0.2-0.4c0.1-0.1,0.1-0.3,0.1-0.4c0-0.1,0-0.3,0-0.4c0-0.1-0.1-0.2-0.1-0.3V233
			h2.1v0.1c-0.1,0.1-0.1,0.3,0,0.5c0.1,0.2,0.1,0.4,0.3,0.7l2.1,4.6l0.3,0.5l0.4,0.7c0.1,0.3,0.3,0.5,0.4,0.7
			c0.1,0.2,0.3,0.4,0.4,0.5v0.1h-1.8v-0.1c0.1-0.1,0.1-0.2,0.1-0.3s0-0.3-0.1-0.4c0-0.1-0.1-0.3-0.1-0.4l-0.2-0.4l-0.3-0.7h-4.5
			l-0.3,0.7c-0.1,0.1-0.1,0.2-0.2,0.4c-0.1,0.1-0.1,0.3-0.1,0.4c0,0.1-0.1,0.3-0.1,0.4s0,0.2,0.1,0.3v0.1L93,241.3L93,241.3z
			 M97.5,234L97.5,234l-1.9,4.2h3.8L97.5,234z"/>
		<path fill="#010101" d="M104.8,238.9c0.1,0.3,0.3,0.6,0.5,0.9c0.2,0.2,0.5,0.4,0.9,0.6c0.4,0.1,0.8,0.2,1.4,0.2
			c0.6,0,1-0.1,1.4-0.2c0.4-0.1,0.7-0.3,0.9-0.6c0.2-0.2,0.4-0.5,0.5-0.9c0.1-0.3,0.2-0.7,0.2-1.1v-3.1c0-0.1,0-0.2,0-0.4
			c0-0.1,0-0.3-0.1-0.4c0-0.1-0.1-0.3-0.1-0.4c-0.1-0.1-0.1-0.3-0.3-0.3V233h1.8v0.1c-0.1,0.1-0.2,0.2-0.3,0.3
			c-0.1,0.1-0.1,0.3-0.1,0.4c0,0.1,0,0.3,0,0.4c0,0.1,0,0.3,0,0.4v3.3c0,0.5-0.1,1-0.3,1.5c-0.2,0.4-0.4,0.8-0.8,1.1
			c-0.3,0.3-0.7,0.5-1.2,0.7c-0.5,0.2-1,0.2-1.6,0.2c-1.3,0-2.2-0.3-2.9-0.9c-0.7-0.6-1-1.5-1-2.6v-3.3c0-0.1,0-0.2,0-0.4
			c0-0.1,0-0.3,0-0.4c0-0.1-0.1-0.3-0.1-0.4c-0.1-0.1-0.1-0.3-0.3-0.3V233h1.8v0.1c-0.1,0.1-0.2,0.2-0.3,0.3
			c-0.1,0.1-0.1,0.3-0.1,0.4c0,0.1,0,0.3-0.1,0.4c0,0.1,0,0.3,0,0.4v3.1C104.6,238.2,104.7,238.6,104.8,238.9z"/>
		<path fill="#010101" d="M120.9,234.7c-0.1-0.2-0.3-0.3-0.5-0.4c-0.2-0.1-0.5-0.2-0.8-0.3s-0.6-0.1-0.9-0.2c-0.3,0-0.6-0.1-0.9-0.1
			c-0.4,0-0.8,0-1.1,0.1s-0.7,0.2-0.9,0.3c-0.3,0.1-0.5,0.3-0.6,0.5c-0.1,0.2-0.2,0.4-0.2,0.7s0.1,0.5,0.2,0.6
			c0.1,0.2,0.3,0.3,0.6,0.4s0.5,0.2,0.9,0.2c0.3,0,0.7,0.1,1.1,0.1l1,0.1c0.3,0,0.6,0.1,0.9,0.1c0.3,0.1,0.6,0.1,0.8,0.2
			c0.3,0.1,0.5,0.2,0.7,0.4s0.3,0.3,0.5,0.6c0.1,0.2,0.2,0.5,0.2,0.8c0,0.4-0.1,0.8-0.3,1.1c-0.2,0.3-0.5,0.6-0.8,0.8
			c-0.4,0.2-0.8,0.4-1.3,0.5c-0.5,0.1-1.1,0.2-1.7,0.2c-0.5,0-1,0-1.4-0.1c-0.4-0.1-0.8-0.2-1.1-0.3c-0.3-0.1-0.6-0.2-0.8-0.3
			l-0.5-0.3l0.5-1h0.1c0.2,0.2,0.4,0.3,0.6,0.5c0.3,0.1,0.5,0.3,0.9,0.4c0.3,0.1,0.7,0.2,1,0.2c0.4,0.1,0.7,0.1,1.1,0.1
			c1,0,1.7-0.2,2.2-0.5c0.5-0.3,0.7-0.7,0.7-1.2c0-0.2-0.1-0.4-0.2-0.6c-0.1-0.2-0.3-0.3-0.5-0.4c-0.2-0.1-0.5-0.2-0.8-0.2
			s-0.6-0.1-0.9-0.1c-0.5-0.1-1-0.1-1.5-0.2s-1-0.1-1.4-0.3c-0.4-0.1-0.8-0.3-1-0.6c-0.3-0.3-0.4-0.6-0.4-1.1c0-0.4,0.1-0.7,0.3-1.1
			c0.2-0.3,0.5-0.6,0.8-0.8c0.3-0.2,0.8-0.4,1.2-0.5c0.5-0.1,1-0.2,1.6-0.2c0.5,0,1,0,1.4,0.1c0.4,0.1,0.8,0.2,1.1,0.3
			c0.3,0.1,0.6,0.2,0.7,0.3c0.2,0.1,0.3,0.1,0.3,0.2L120.9,234.7L120.9,234.7z"/>
		<path fill="#010101" d="M123.5,241.3L123.5,241.3c0.1-0.2,0.2-0.3,0.2-0.6c0.1-0.2,0.1-0.5,0.1-0.7s0-0.5,0-0.7s0-0.4,0-0.5v-4.1
			c0-0.1,0-0.2,0-0.4c0-0.1,0-0.3,0-0.4c0-0.1-0.1-0.3-0.1-0.4c-0.1-0.1-0.1-0.3-0.2-0.3V233h6.9l0.4,1.3l-0.1,0
			c-0.1-0.1-0.3-0.2-0.5-0.2c-0.2-0.1-0.4-0.1-0.7-0.2c-0.3,0-0.5-0.1-0.8-0.1c-0.3,0-0.6,0-0.9,0h-2.9v2.9h5.3l0,0.1l-0.7,1.1h-0.1
			c-0.1-0.1-0.2-0.1-0.3-0.2s-0.3-0.1-0.4-0.1c-0.2,0-0.3,0-0.5-0.1c-0.2,0-0.3,0-0.5,0h-2.8v2.9h2.1c0.2,0,0.5,0,0.9,0
			c0.4,0,0.7,0,1.1-0.1c0.4,0,0.8-0.1,1.1-0.1c0.4-0.1,0.7-0.1,0.9-0.2l0.1,0l-0.8,1.3H123.5z"/>
		<path fill="#010101" d="M133,241.3L133,241.3c0.1-0.2,0.2-0.3,0.2-0.6c0.1-0.2,0.1-0.5,0.1-0.7s0-0.5,0-0.7s0-0.4,0-0.5v-4.1
			c0-0.1,0-0.2,0-0.4c0-0.1,0-0.3,0-0.4c0-0.1-0.1-0.3-0.1-0.4c-0.1-0.1-0.1-0.3-0.2-0.3V233h1.8v0.1c-0.1,0.1-0.2,0.2-0.3,0.3
			c-0.1,0.1-0.1,0.3-0.1,0.4c0,0.1,0,0.3-0.1,0.4c0,0.1,0,0.3,0,0.4v5.8h1.2c0.1,0,0.2,0,0.4,0s0.4,0,0.7,0c0.3,0,0.6,0,0.9,0
			c0.3,0,0.6,0,0.9-0.1s0.6-0.1,0.9-0.1c0.3-0.1,0.5-0.1,0.7-0.2l0,0l-0.7,1.3H133z"/>
		<path fill="#010101" d="M141.4,233.1c0,0.1,0,0.2,0,0.3c0,0.1,0.1,0.3,0.2,0.4c0.1,0.1,0.2,0.3,0.3,0.4l0.3,0.4l1.7,2.2h0l1.7-2.2
			l0.3-0.4c0.1-0.1,0.2-0.3,0.3-0.4c0.1-0.1,0.1-0.3,0.2-0.4c0-0.1,0-0.3,0-0.3V233h1.7v0.1c-0.1,0.1-0.2,0.2-0.4,0.3
			c-0.1,0.1-0.2,0.3-0.4,0.4l-0.3,0.4l-0.3,0.4l-2.3,3.1v1.1c0,0.1,0,0.3,0,0.5s0,0.5,0,0.7c0,0.3,0.1,0.5,0.1,0.7
			c0.1,0.2,0.1,0.4,0.2,0.5v0.1H143v-0.1c0.1-0.1,0.2-0.2,0.2-0.5c0-0.2,0.1-0.5,0.1-0.7s0-0.5,0-0.7s0-0.4,0-0.5v-1.1l-2.3-3.1
			l-0.3-0.4c-0.1-0.1-0.2-0.3-0.3-0.4c-0.1-0.1-0.2-0.3-0.4-0.4s-0.2-0.2-0.4-0.3V233L141.4,233.1L141.4,233.1z"/>
	</g>
	<g>
		<path fill="#010101" d="M71.1,199.1c3.3,0,6.5,1.1,9.3,4.2l-4.2,4.1c-1.4-1.5-2.8-2.3-5.2-2.3c-3.2,0-5.7,2.4-5.7,5.9
			c0,3.4,2.5,5.8,5.7,5.8c2.3,0,3.8-0.8,5.2-2.3l4.2,4.1c-2.8,3.1-6,4.2-9.3,4.2c-6.9,0-12.4-5-12.4-11.8
			C58.7,204.1,64.3,199.1,71.1,199.1z"/>
		<path fill="#010101" d="M83.4,191.2h6.6v11.3c0.9-1.9,3.3-3.2,6.3-3.2c5.3,0,8.3,3.5,8.3,9.3v13.6H98v-12.8c0-2.6-1.3-4.2-3.8-4.2
			c-2.4,0-4.1,1.8-4.1,4.5v12.6h-6.6V191.2z"/>
		<path fill="#010101" d="M108,211c0-7.2,5.2-11.7,12.1-11.7c6.9,0,11.5,5.1,11.5,11.4c0,0,0,1.1-0.1,2.1h-17c0.1,2.7,2.4,4.4,6,4.4
			c2.3,0,3.9-0.7,5.5-2.2l3.9,3.7c-3,3.1-6.2,4.1-9.7,4.1c-7.3,0-12.3-4.6-12.3-11.6V211z M125,208.4c0-2-2.2-3.7-4.8-3.7
			c-2.9,0-5.3,1.6-5.4,3.7H125z"/>
		<path fill="#010101" d="M146.3,199.1c3.3,0,6.5,1.1,9.3,4.2l-4.2,4.1c-1.4-1.5-2.8-2.3-5.2-2.3c-3.2,0-5.7,2.4-5.7,5.9
			c0,3.4,2.5,5.8,5.7,5.8c2.3,0,3.8-0.8,5.2-2.3l4.2,4.1c-2.8,3.1-6,4.2-9.3,4.2c-6.9,0-12.4-5-12.4-11.8
			C134,204.1,139.5,199.1,146.3,199.1z"/>
		<path fill="#010101" d="M158.7,191.2h6.6v17.1l7.4-8.5h7.7l-8.9,10.1l9.7,12.3h-7.5l-6.5-8.3l-1.9,2v6.3h-6.6V191.2z"/>
		<path fill="#010101" d="M180.8,206.8h15.9v6.1h-15.9V206.8z"/>
		<path fill="#010101" d="M200.2,194.1c0-2.1,1.7-3.8,3.8-3.8c2.1,0,3.8,1.6,3.8,3.8c0,2.1-1.7,3.7-3.8,3.7
			C201.9,197.9,200.2,196.2,200.2,194.1z M200.7,199.8h6.6v22.4h-6.6V199.8z"/>
		<path fill="#010101" d="M211.1,199.8h6.6v2.8c0.9-2,3.4-3.3,6.5-3.3c5.5,0,8.6,3.5,8.6,9.3v13.6h-6.6v-12.8c0-2.6-1.4-4.2-4.1-4.2
			c-2.5,0-4.4,1.8-4.4,4.5v12.6h-6.6V199.8z"/>
		<path fill="#010101" d="M246,209.3c4.2-0.3,6.4-0.9,6.4-3.9c0-1.9-1.6-4.1-5.5-4.1c-2.8,0-5,1.5-6.4,3.7l-1.6-1.2
			c1.7-3,4.6-4.6,8-4.6c4.6,0,7.7,2.5,7.7,6.5c0,0,0,12.5,0,12.7c0,1.6,0.4,2.2,1.7,2.2c0.3,0,0.6,0,0.7-0.1v1.6
			c-0.4,0.3-1.2,0.4-1.7,0.4c-1.2,0-1.8-0.5-2.2-1.1c-0.4-0.5-0.4-1.3-0.5-2c-1.3,2.2-4.3,3.4-7.9,3.4c-4.6,0-7.8-2.5-7.8-6.5
			C236.9,211.9,240.1,209.6,246,209.3z M244.9,220.7c5.1,0,7.5-2.6,7.5-5.7v-5.5c-0.9,1.3-3.1,1.6-6.3,1.9c-4.4,0.4-7,1.5-7,4.9
			C239.1,218.7,241,220.7,244.9,220.7z"/>
		<path fill="#010101" d="M260.3,199.8h2.2v4.3c1.1-2.6,3.3-4.7,7.8-4.7c5.2,0,8.6,3.5,8.6,8.9v13.8h-2.2v-13.4
			c0-4.5-2.8-7.3-6.9-7.3c-4.5,0-7.3,3.5-7.3,8.6v12.1h-2.2V199.8z"/>
		<path fill="#010101" d="M294.7,199.2c4.5,0,7.6,2.3,8.9,5.3v-4.7h2.2v19.1c0,4.4-0.3,8-3.4,10.5c-1.9,1.5-4.6,2.4-7.6,2.4
			c-4.1,0-7.8-1.2-10.5-3.5l1.2-1.7c2.3,2,5.3,3.1,9.3,3.1c2.5,0,4.8-0.6,6.3-1.9c2.3-1.9,2.6-5,2.6-7.7v-2.8
			c-1.3,3-4.4,5.4-8.9,5.4c-6.3,0-11.3-5-11.3-11.8C283.4,204.2,288.4,199.2,294.7,199.2z M294.7,220.7c5.2,0,9.2-4,9.2-9.7
			c0-5.7-4-9.7-9.2-9.7c-5.2,0-9.1,4.2-9.1,9.6C285.6,216.5,289.5,220.7,294.7,220.7z"/>
		<path fill="#010101" d="M308.7,211c0-7,4.8-11.8,10.9-11.8c6.1,0,10.4,5,10.4,11.2c0,0,0,0.7,0,1.1h-19.1c0.1,5.4,3.7,9.1,8.9,9.1
			c3.2,0,5.4-1.2,7.3-3.2l1.5,1.4c-2.5,2.9-5.7,3.9-8.8,3.9c-6.4,0-11-4.7-11-11.6V211z M327.8,209.5c0-4.6-3.6-8.2-8.1-8.2
			c-4.7,0-8.5,3.6-8.7,8.2H327.8z"/>
		<path fill="#010101" d="M334.5,191.2h2.2v25.2c0,2.9,1,4.3,3.3,4.3c0.7,0,1.3,0,1.9-0.2v2c-0.6,0.1-1.2,0.2-1.9,0.2
			c-2.7,0-5.6-1.1-5.6-6.2V191.2z"/>
		<path fill="#010101" d="M345.5,216.6c0.8,2.3,2.9,4,6.5,4c3.9,0,5.3-2.1,5.3-4.1c0-2.8-2-3.7-5.7-5.3c-3.5-1.5-6-2.9-6-6.5
			c0-3.2,2.6-5.5,6.2-5.5c2.8,0,4.8,1.2,6,3.5l-1.8,0.9c-0.8-1.5-2.1-2.4-4.1-2.4c-2.3,0-4,1.3-4,3.4c0,2.5,2,3.5,5.1,4.8
			c4.3,1.7,6.6,3.4,6.6,7c0,3.2-2.5,6.2-7.5,6.2c-4.1,0-7.3-2-8.3-5.4L345.5,216.6z"/>
	</g>
</g>
<g id="Layer_2">
</g>
<g id="Layer_3">
</g>
</svg>
