<?xml version="1.0" encoding="utf-8"?>
<!-- Generated by IcoMoon.io -->
<!DOCTYPE svg PUBLIC "-//W3C//DTD SVG 1.1//EN" "http://www.w3.org/Graphics/SVG/1.1/DTD/svg11.dtd">
<svg version="1.1" xmlns="http://www.w3.org/2000/svg" xmlns:xlink="http://www.w3.org/1999/xlink" width="512" height="512" viewBox="0 0 512 512"><g id="icomoon-ignore">
</g>
<path d="M256 86.044c-73.6 0-132.978 55.111-132.978 140.445s132.978 199.822 132.978 199.822 132.978-114.134 132.978-199.822c0-85.689-59.378-140.445-132.978-140.445zM256.356 315.378c-52.622 0-94.222-43.378-94.222-93.867 0-53.689 43.733-94.578 94.222-94.578 33.067 0 63.289 17.422 80 44.8-4.978 18.489-13.866 31.289-28.8 45.867-0.356-20.978-19.555-51.911-51.2-51.911-22.044 0-51.911 18.845-51.911 55.822 0 33.422 24.178 54.4 51.911 55.111 46.933 0.711 79.289-76.089 82.134-100.978 7.111 13.155 11.378 28.445 11.378 45.156 0 57.955-44.445 94.578-93.511 94.578z"></path>
</svg>
