<?xml version="1.0" encoding="utf-8"?>
<!-- Generated by IcoMoon.io -->
<!DOCTYPE svg PUBLIC "-//W3C//DTD SVG 1.1//EN" "http://www.w3.org/Graphics/SVG/1.1/DTD/svg11.dtd">
<svg version="1.1" xmlns="http://www.w3.org/2000/svg" xmlns:xlink="http://www.w3.org/1999/xlink" width="512" height="512" viewBox="0 0 512 512"><g id="icomoon-ignore">
</g>
<path d="M497.778 284.445c4.978-35.555-11.022-83.2-11.022-83.2-40.178 51.555-99.555 72.534-99.555 72.534s73.245-37.689 99.555-98.489c-13.156-46.934-71.822-123.378-71.822-123.378 0 75.022-22.755 121.956-48.711 151.111 0-0.711 0-1.422 0-2.133-0.711-19.2-8.889-34.489-24.534-45.511-20.622-14.578-49.067-17.778-85.334-17.778s-64.356 2.845-85.334 17.778c-15.644 11.022-23.822 26.311-24.534 45.511 0 0.711 0 1.422 0 2.133-26.311-29.155-48.711-76.089-48.711-151.111 0 0-58.666 76.445-71.822 123.378 26.666 60.8 99.555 98.489 99.555 98.489s-59.378-20.978-99.555-72.534c0 0-16 48-11.022 83.2 40.178 27.733 98.844 28.445 109.156 28.445 0 0 0 0 0 0-8.534 1.067-51.2 4.978-97.778-11.022 0 0 3.2 31.644 17.778 49.422 40.889 9.956 77.511 3.2 92.089-0.711 0 0 0.356 0.356 0.356 0.356-12.089 4.267-40.534 12.445-73.6 10.311 0 0 4.978 21.689 28.089 36.267 27.022-2.134 52.267-9.245 67.555-14.578 0.356 0.356 0.711 1.067 1.422 1.422-11.022 4.978-28.8 11.733-50.844 15.289 0 0 16.711 18.489 38.045 23.111 14.222-3.555 25.956-10.666 34.133-16.711 0.711 0.356 1.066 1.067 1.778 1.422-5.333 4.622-12.089 9.956-21.334 13.866 18.133 8.534 35.911 10.666 50.489 10.311 21.689 16.356 39.111 26.311 39.822 27.022 1.422 0.711 2.845 1.067 4.266 1.067s3.2-0.356 4.267-1.067c1.067-0.356 18.134-10.666 39.822-27.022 14.578 0.711 32.356-1.422 50.489-10.311-8.889-3.911-16-9.245-21.334-13.866 0.711-0.356 1.067-1.067 1.778-1.422 8.178 6.045 19.911 13.156 34.134 16.711 21.334-4.622 38.044-23.111 38.044-23.111-22.044-3.555-39.466-10.311-50.844-15.289 0.356-0.356 0.711-1.067 1.422-1.422 15.289 4.978 40.534 12.445 67.555 14.578 23.111-14.578 28.089-36.267 28.089-36.267-33.067 2.134-61.511-6.045-73.6-10.311 0 0 0.356-0.356 0.356-0.356 14.578 3.555 51.2 10.666 92.089 0.711 14.578-17.778 17.778-49.422 17.778-49.422-46.578 16.356-89.6 12.089-97.778 11.022 0 0 0 0 0 0 10.311 0 68.978-0.711 109.156-28.445zM379.378 316.089c-10.666 70.045-123.378 135.111-123.378 135.111s-112.711-65.422-123.378-135.111c-0.356-3.555-0.711-6.755-0.711-10.311 0-25.6 13.867-47.644 34.844-59.378-0.711-1.066-1.066-2.133-1.422-3.2-11.378-25.244-18.845-60.089 10.667-80.711 18.845-13.155 45.511-16 80-16s61.156 2.845 80 16c29.511 20.978 22.044 55.466 10.666 80.711-0.356 1.066-1.067 2.133-1.422 3.2 20.622 11.733 34.844 33.778 34.844 59.378 0 3.555 0 7.111-0.711 10.311z" fill="rgb(68, 68, 68)"></path>
<path d="M315.378 191.644c-11.733-8.178-36.622-9.6-59.378-9.6s-47.644 1.066-59.378 9.6c-3.2 2.133-11.378 8.178 1.422 36.622 1.422 2.845 2.845 6.044 4.622 9.6 22.044 0.711 41.6 12.089 53.334 29.155 11.733-17.066 31.289-28.445 53.334-29.155 1.778-3.555 3.2-6.756 4.622-9.6 12.8-28.445 4.622-34.489 1.422-36.622zM306.134 224.711c-0.711 1.422-1.422 3.2-2.134 4.978-18.134 2.133-35.2 10.666-47.644 23.822-12.445-13.155-29.511-21.689-47.644-23.822-0.711-1.778-1.422-3.555-2.133-4.978-6.4-13.867-6.4-20.267-6.044-23.111 0.356-1.778 0.711-1.778 1.778-2.489 11.022-7.822 42.311-7.822 54.4-7.822 11.733 0 43.022 0 54.4 7.822 1.067 0.711 1.422 1.066 1.778 2.489-0.356 2.489-0.711 9.244-6.755 23.111z" fill="rgb(68, 68, 68)"></path>
<path d="M273.778 294.755h-35.2v39.822h-40.178v35.2h40.178v39.822h35.2v-39.822h40.178v-35.2h-40.178z" fill="rgb(68, 68, 68)"></path>
</svg>
