<?xml version="1.0" encoding="utf-8"?>
<!-- Generated by IcoMoon.io -->
<!DOCTYPE svg PUBLIC "-//W3C//DTD SVG 1.1//EN" "http://www.w3.org/Graphics/SVG/1.1/DTD/svg11.dtd">
<svg version="1.1" xmlns="http://www.w3.org/2000/svg" xmlns:xlink="http://www.w3.org/1999/xlink" width="512" height="512" viewBox="0 0 512 512"><g id="icomoon-ignore">
</g>
<path d="M351.2 287.2c0-19.6-10.9-36.6-26.7-45.6 0.3-0.8 0.8-1.6 1.1-2.5 8.7-19.4 14.5-45.8-8.2-61.9-14.5-10.1-34.9-12.3-61.4-12.3s-46.9 2.2-61.4 12.3c-22.6 15.8-16.9 42.6-8.2 61.9 0.3 0.8 0.5 1.6 1.1 2.5-16.1 9-26.7 25.9-26.7 45.6 0 2.7 0.3 5.2 0.5 7.9 8.2 53.5 94.7 103.7 94.7 103.7s86.5-49.9 94.7-103.7v0c0.5-2.5 0.5-5.2 0.5-7.9zM300.5 336.3h-30.8v30.6h-27v-30.6h-30.8v-27h30.8v-30.6h27v30.6h30.8v27zM301.5 228.2c-0.5 1.1-1 2.1-1.6 3.3-0.6 1.3-1.3 2.7-2 4.1l-0.3 0.6h-0.7c-16 0.5-30.9 8.7-40 21.9l-0.9 1.4-0.9-1.4c-9.1-13.2-24-21.4-40-21.9h-0.7l-0.3-0.6c-0.7-1.4-1.4-2.8-2-4.1-0.5-1.1-1.1-2.2-1.6-3.3-10.4-23.1-3.1-28-0.7-29.6 9.1-6.6 27.6-7.6 46.2-7.6 16.5 0 36.6 0.9 46.2 7.6 2.4 1.6 9.7 6.5-0.7 29.6z"></path>
<path d="M430.7 211.1c-8.3-27.3-36.3-68.2-48.8-85.2-1.7 42.9-18 84.7-39.4 111 11.5 10.4 19.7 25.8 20.7 43.8 45-27 62.7-58.5 67.5-69.6v0z"></path>
<path d="M354.9 321.2c-3.1 6.9-7.9 13.2-12.4 20.5 6.2 1.7 24.2 6.9 44.6 6.9 11.1 0 21.8-1 31.5-3.5 6.9-9 10-22.8 11.4-30.1-20.4 6.2-40.2 7.6-53.7 7.6-11.3 0-19.3-1.1-21.4-1.4v0z"></path>
<path d="M339.3 348.9c-3.8 5.9-8.6 10.9-15.8 17.3 9.7 3.5 35.2 12.1 59.4 14.2 10.4-6.9 15.6-15.6 17.7-20.8-1 0-2.1 0-3.1 0-28 0-53-8.7-58.2-10.7v0z"></path>
<path d="M432.8 238.8c-25.3 29.4-57.5 45-69.6 50.2-0.3 7.6-2.1 15.9-5.5 24.9 0.3 0 0.7 0 1 0 12.1 0 53-1.4 81-19.7 2.5-19.4-3.8-44-6.9-55.4v0z"></path>
<path d="M305.3 381.2c5.9 4.8 22.9 15.8 35 18.9 9.3-2.1 17.3-8 22.2-12.1-20.1-4.2-38.6-14.1-44.8-17.5-2.8 3.4-12 10.4-12.4 10.7z"></path>
<path d="M79.1 211.1c4.8 11.1 22.5 42.6 67.5 69.6 1-18 9.2-33.4 20.7-43.8-21.5-26.3-37.7-68-39.4-111-12.5 17-40.5 57.8-48.8 85.2v0z"></path>
<path d="M154.9 321.2c-2.1 0.3-10 1.4-21.5 1.4-13.5 0-33.2-1.4-53.7-7.6 1.4 7.3 4.5 21.1 11.4 30.1 9.7 2.4 20.4 3.5 31.5 3.5 20.4 0 38.4-5.2 44.6-6.9-4.4-7.3-9.2-13.6-12.3-20.5v0z"></path>
<path d="M170.5 348.9c-5.2 2.1-30.1 10.7-58.2 10.7-1 0-2.1 0-3.1 0 2.1 5.2 7.3 13.8 17.7 20.8 24.2-2.1 49.7-10.7 59.4-14.2-7.2-6.4-12-11.5-15.8-17.3v0z"></path>
<path d="M77 238.8c-3.1 11.4-9.3 36-6.9 55.4 28 18.3 68.9 19.7 81 19.7 0.3 0 0.7 0 1 0-3.5-9-5.2-17.3-5.5-24.9-12.1-5.2-44.3-20.8-69.6-50.2v0z"></path>
<path d="M192.1 370.4c-6.2 3.5-24.8 13.4-44.8 17.5 4.8 4.2 12.8 10 22.2 12.1 12.1-3.1 29.2-14 35-18.9-0.4-0.2-9.6-7.2-12.4-10.7z"></path>
</svg>
