<?xml version="1.0" encoding="utf-8"?>
<!-- Generated by IcoMoon.io -->
<!DOCTYPE svg PUBLIC "-//W3C//DTD SVG 1.1//EN" "http://www.w3.org/Graphics/SVG/1.1/DTD/svg11.dtd">
<svg version="1.1" xmlns="http://www.w3.org/2000/svg" xmlns:xlink="http://www.w3.org/1999/xlink" width="16" height="16" viewBox="0 0 16 16">
<path d="M9.485 12.714c-0.651-0.26-1.328-0.391-1.901-0.495-0.417-0.078-0.99-0.182-1.094-0.313v-0.417c1.328-0.052 1.875-0.469 1.901-0.495 0.052-0.026 0.078-0.104 0.078-0.156s-0.052-0.104-0.104-0.156c-0.339-0.208-0.599-1.589-0.677-2.5 0-0.729-0.287-1.432-0.833-1.901-0.208-0.234-0.469-0.391-0.807-0.495-0.547-0.208-1.146-0.182-1.667 0.026-0.287 0.104-0.521 0.234-0.677 0.417-0.573 0.495-0.912 1.224-0.912 1.979-0.078 0.938-0.339 2.318-0.677 2.5-0.052 0.026-0.078 0.078-0.104 0.156 0 0.052 0.026 0.13 0.078 0.156 0.026 0.026 0.573 0.443 1.901 0.495v0.391c-0.078 0.13-0.651 0.234-1.094 0.313-0.547 0.104-1.25 0.234-1.901 0.495-0.182 0.078-0.313 0.26-0.313 0.469v1.094c0.026 0.287 0.234 0.495 0.521 0.495h8.1c0.26 0 0.495-0.234 0.495-0.495v-1.094c0-0.208-0.13-0.391-0.313-0.469z" fill="#000000"></path>
<path d="M11.672 1.801c-0.287 0-0.599 0.104-0.807 0.313-0.208-0.208-0.495-0.313-0.807-0.313-0.625 0-1.146 0.521-1.146 1.146 0 0.26 0.078 0.495 0.234 0.677 0 0 0.026 0.026 0.026 0.026l1.432 1.693c0.052 0.078 0.156 0.13 0.26 0.13v0c0.104 0 0.182-0.052 0.26-0.13l1.432-1.667c0.182-0.208 0.26-0.469 0.26-0.729 0.026-0.625-0.495-1.146-1.146-1.146z" fill="#000000"></path>
<path d="M12.245 0.16h-2.891c-1.693 0-3.047 1.485-3.047 3.308 0 1.563 0.99 2.891 2.37 3.23l-0.365 2.084c0 0.078 0.052 0.13 0.104 0.156 0.026 0 0.052 0.026 0.078 0.026 0.052 0 0.078-0.026 0.13-0.052l2.813-2.136h0.833c1.693 0 3.047-1.485 3.047-3.308-0.026-1.823-1.38-3.308-3.073-3.308zM12.245 6.411h-0.912c-0.052 0-0.078 0.026-0.13 0.052l-2.552 1.927 0.365-1.823c0-0.078-0.052-0.156-0.156-0.182-1.276-0.26-2.214-1.459-2.214-2.891 0-1.615 1.198-2.943 2.683-2.943h2.891c1.485 0 2.683 1.328 2.683 2.943 0.026 1.589-1.172 2.917-2.657 2.917z" fill="#000000"></path>
</svg>
