<?xml version="1.0" encoding="utf-8"?>
<!-- Generated by IcoMoon.io -->
<!DOCTYPE svg PUBLIC "-//W3C//DTD SVG 1.1//EN" "http://www.w3.org/Graphics/SVG/1.1/DTD/svg11.dtd">
<svg version="1.1" xmlns="http://www.w3.org/2000/svg" xmlns:xlink="http://www.w3.org/1999/xlink" width="16" height="16" viewBox="0 0 16 16">
<path d="M13.417 11.386c-0.313 0-0.599 0.052-0.886 0.182l-4.011-4.532v-2.448c0.886-0.287 1.511-1.12 1.511-2.11 0-1.224-0.99-2.214-2.214-2.214s-2.214 0.99-2.214 2.214c0 0.964 0.625 1.797 1.511 2.11v2.474l-3.803 4.48c-0.26-0.104-0.547-0.156-0.833-0.156-1.224 0-2.214 0.99-2.214 2.214s0.99 2.214 2.214 2.214c1.224 0 2.214-0.99 2.214-2.214 0-0.417-0.104-0.807-0.339-1.146l2.761-3.256v2.318c-0.886 0.287-1.511 1.12-1.511 2.11 0 1.224 0.99 2.214 2.214 2.214s2.214-0.99 2.214-2.214c0-0.964-0.625-1.797-1.511-2.11v-2.37l2.969 3.36c-0.208 0.339-0.313 0.729-0.313 1.12 0 1.224 0.99 2.214 2.214 2.214s2.214-0.99 2.214-2.214c0.026-1.25-0.964-2.24-2.188-2.24zM14.72 14.902c-0.13-0.026-0.26-0.052-0.365-0.078-0.156-0.026-0.365-0.078-0.391-0.104v-0.13c0.495-0.026 0.703-0.182 0.703-0.182 0.026-0.026 0.026-0.052 0.026-0.078s-0.026-0.052-0.052-0.078c-0.104-0.052-0.208-0.521-0.234-0.912 0-0.287-0.104-0.547-0.313-0.729-0.078-0.078-0.182-0.156-0.313-0.182-0.208-0.078-0.443-0.078-0.625 0-0.104 0.026-0.208 0.078-0.26 0.156-0.208 0.182-0.339 0.469-0.339 0.755-0.026 0.391-0.13 0.859-0.234 0.938-0.026 0.026-0.052 0.052-0.052 0.078s0 0.052 0.026 0.078c0 0 0.208 0.182 0.703 0.182v0.13c-0.052 0.052-0.234 0.078-0.391 0.104-0.13 0.026-0.287 0.052-0.417 0.104-0.339-0.339-0.547-0.807-0.547-1.302 0-0.443 0.156-0.833 0.417-1.146l-3.907-4.402v3.698c0.859 0.156 1.511 0.886 1.511 1.797 0 0.521-0.234 0.99-0.573 1.328-0.599-0.26-0.703-0.365-0.729-0.417v-0.13c0.104-0.13 0.182-0.287 0.234-0.443 0.078-0.078 0.13-0.182 0.13-0.287 0-0.078-0.026-0.156-0.052-0.208v-0.365c0-0.469-0.287-0.755-0.807-0.755s-0.807 0.287-0.807 0.755v0.26c-0.026 0.052-0.026 0.104-0.026 0.156-0.026 0.052-0.026 0.104-0.026 0.156 0 0.078 0.026 0.182 0.078 0.234 0.026 0.052 0.052 0.104 0.078 0.13 0.052 0.13 0.13 0.26 0.208 0.339v0.13c-0.026 0.026-0.13 0.156-0.755 0.417-0.365-0.339-0.599-0.807-0.599-1.328 0-0.912 0.651-1.641 1.511-1.797v-3.646l-3.646 4.297c0.26 0.313 0.443 0.729 0.443 1.172 0 0.547-0.234 1.016-0.599 1.354-0.547-0.234-0.651-0.339-0.677-0.391v-0.13c0.104-0.13 0.182-0.287 0.26-0.469 0.078-0.078 0.13-0.182 0.13-0.287 0-0.078-0.026-0.156-0.052-0.208v-0.365c0-0.495-0.286-0.755-0.833-0.755-0.521 0-0.833 0.287-0.833 0.755v0.208c-0.026 0.078-0.052 0.156-0.052 0.234-0.026 0.052-0.026 0.078-0.026 0.13 0 0.104 0.052 0.208 0.104 0.26 0 0.026 0.026 0.026 0.026 0.052 0.052 0.182 0.13 0.313 0.234 0.443v0.13c-0.026 0.026-0.13 0.156-0.729 0.417-0.391-0.339-0.625-0.833-0.625-1.38 0-1.016 0.807-1.823 1.823-1.823 0.339 0 0.651 0.104 0.938 0.26l4.115-4.844v-2.917c-0.495-0.078-0.912-0.365-1.172-0.729v-0.078c0-0.078 0.052-0.13 0.104-0.156 0.208-0.078 0.443-0.13 0.625-0.156 0.13-0.026 0.339-0.052 0.365-0.104v-0.13c-0.443-0.026-0.625-0.156-0.625-0.156-0.026 0-0.026-0.026-0.026-0.052s0.026-0.026 0.026-0.052c0.104-0.052 0.208-0.521 0.234-0.833 0-0.26 0.104-0.495 0.287-0.651 0.052-0.052 0.13-0.104 0.234-0.13 0.156-0.078 0.339-0.078 0.521-0.026 0.104 0.026 0.208 0.078 0.26 0.156 0.182 0.156 0.26 0.391 0.26 0.625 0.026 0.286 0.104 0.755 0.234 0.807 0.026 0 0.026 0.026 0.026 0.052s0 0.052-0.026 0.052c0 0-0.182 0.156-0.625 0.156v0.182c0.026 0.026 0.208 0.078 0.365 0.104 0.182 0.026 0.417 0.078 0.625 0.156 0.052 0.026 0.104 0.078 0.104 0.156v0.052c-0.287 0.391-0.703 0.677-1.198 0.755v2.917l4.324 4.87c0.287-0.182 0.599-0.287 0.964-0.287 1.016 0 1.823 0.807 1.823 1.823 0 0.521-0.208 0.964-0.521 1.302z" fill="#000000"></path>
</svg>
