<?xml version="1.0" encoding="utf-8"?>
<!-- Generated by IcoMoon.io -->
<!DOCTYPE svg PUBLIC "-//W3C//DTD SVG 1.1//EN" "http://www.w3.org/Graphics/SVG/1.1/DTD/svg11.dtd">
<svg version="1.1" xmlns="http://www.w3.org/2000/svg" xmlns:xlink="http://www.w3.org/1999/xlink" width="16" height="16" viewBox="0 0 16 16">
<path d="M12.324 10.318c-1.38 0-2.5 1.12-2.5 2.5s1.12 2.5 2.5 2.5c1.38 0 2.5-1.12 2.5-2.5s-1.12-2.5-2.5-2.5zM12.324 14.902c-1.146 0-2.084-0.938-2.084-2.084s0.938-2.084 2.084-2.084c1.146 0 2.084 0.938 2.084 2.084 0.026 1.146-0.912 2.084-2.084 2.084z" fill="#000000"></path>
<path d="M10.058 10.943c-0.651-0.339-0.833-0.521-0.859-0.599v-0.365c0.313-0.339 0.547-0.781 0.703-1.302 0.234-0.182 0.365-0.469 0.365-0.781 0-0.208-0.052-0.391-0.182-0.573v-1.042c0-1.354-0.833-2.11-2.266-2.11s-2.292 0.781-2.292 2.11v1.042c-0.13 0.156-0.182 0.365-0.182 0.573 0 0.313 0.13 0.573 0.365 0.781 0.156 0.521 0.391 0.964 0.703 1.302v0.365c-0.078 0.156-0.573 0.625-3.308 1.667-0.208 0.078-0.365 0.287-0.365 0.521v1.224c0 0.313 0.234 0.547 0.547 0.547h6.511c-0.26-0.443-0.417-0.938-0.417-1.485 0-0.703 0.26-1.354 0.677-1.875z" fill="#000000"></path>
<path d="M3.468 11.36h-1.537c0 0-0.026 0-0.026-0.026v-0.807c0 0 0-0.026 0.026-0.026 0.443-0.182 0.938-0.26 1.354-0.339 0.599-0.104 0.99-0.182 1.068-0.469 0-0.026 0-0.052 0-0.052v-0.469c0-0.104-0.104-0.208-0.208-0.208-0.573 0-0.938-0.104-1.12-0.182 0.313-0.495 0.417-1.537 0.443-1.901 0-0.469 0.182-0.886 0.495-1.198 0 0 0 0 0.026-0.026 0.104-0.13 0.26-0.208 0.443-0.287 0.26-0.104 0.521-0.13 0.781-0.078 0.052-0.13 0.078-0.26 0.156-0.391-0.339-0.078-0.703-0.078-1.068 0.052-0.26 0.078-0.469 0.208-0.625 0.391-0.391 0.365-0.625 0.912-0.625 1.459-0.052 0.755-0.26 1.667-0.469 1.797-0.052 0.026-0.104 0.104-0.104 0.156 0 0.078 0.026 0.13 0.078 0.182 0.026 0.026 0.417 0.339 1.38 0.391v0.208c-0.078 0.052-0.469 0.13-0.755 0.182-0.417 0.078-0.912 0.182-1.406 0.365-0.156 0.052-0.286 0.234-0.286 0.417v0.807c0 0.234 0.182 0.443 0.443 0.443h0.651c0.026-0.026 0.078-0.052 0.104-0.052 0.313-0.13 0.599-0.234 0.859-0.339-0.026 0-0.052 0-0.078 0z" fill="#000000"></path>
<path d="M12.558 12.636v-1.276h-0.417v1.276h-1.25v0.417h1.25v1.25h0.417v-1.25h1.276v-0.417z" fill="#000000"></path>
</svg>
