<?xml version="1.0" encoding="utf-8"?>
<!-- Generated by IcoMoon.io -->
<!DOCTYPE svg PUBLIC "-//W3C//DTD SVG 1.1//EN" "http://www.w3.org/Graphics/SVG/1.1/DTD/svg11.dtd">
<svg version="1.1" xmlns="http://www.w3.org/2000/svg" xmlns:xlink="http://www.w3.org/1999/xlink" width="16" height="16" viewBox="0 0 16 16">
<path d="M13.733 9c-0.267 0.311-0.578 0.6-0.956 0.867s-0.778 0.489-1.2 0.667c-0.444 0.178-0.889 0.333-1.378 0.422-1 0.222-2.067 0.2-2.978-0.044-0.489-0.133-0.911-0.333-1.267-0.578-0.356-0.267-0.644-0.6-0.867-1s-0.333-0.889-0.333-1.444c0-0.556 0.111-1.044 0.311-1.444 0.133-0.244 0.289-0.467 0.467-0.667 0.356-0.289 0.778-0.489 1.244-0.622s0.933-0.2 1.4-0.2c0.889 0 1.756 0.156 2.578 0.489 0.844 0.333 1.489 0.622 2.267 1.289v0 0.022h0.422l0.889-3.289-0.133-0.133c-0.2-0.111-0.444-0.267-0.778-0.422-0.333-0.178-0.711-0.333-1.156-0.489s-0.956-0.289-1.511-0.4c-0.556-0.111-1.178-0.178-1.844-0.178-0.956 0-1.889 0.133-2.756 0.4-0.889 0.267-1.667 0.667-2.311 1.178-0.667 0.533-1.2 1.178-1.6 1.933s-0.6 1.644-0.6 2.622c0 0.022 0 0.022 0 0.044-0.022 0.156-0.022 0.311-0.022 0.489 0 0.933 0.4 1.756 0.8 2.467s0.889 1.311 1.511 1.778c0.622 0.467 1.356 0.844 2.178 1.089s1.467 0.378 2.378 0.378c0.8 0 1.711-0.111 2.467-0.333 0.844-0.244 1.756-0.778 2.311-1.156l0.022-0.022 1.022-3.667-0.467-0.156-0.111 0.111zM12.911 12.422c-0.556 0.333-1.178 0.578-1.889 0.756-0.733 0.178-1.511 0.289-2.289 0.289-0.867 0-1.733-0.111-2.533-0.356s-1.511-0.578-2.111-1.044c-0.6-0.444-1.089-1.022-1.444-1.711-0.356-0.667-0.533-1.467-0.533-2.378s0.178-1.711 0.556-2.422c0.244-0.489 0.578-0.911 0.956-1.311v0c0 0 0 0 0 0 0.067-0.067 0.133-0.133 0.2-0.2 0.111-0.111 0.222-0.2 0.333-0.289 0.622-0.489 1.356-0.867 2.178-1.111s1.711-0.378 2.622-0.378c0.644 0 1.222 0.044 1.756 0.156s1.022 0.244 1.444 0.378c0.422 0.156 0.8 0.311 1.089 0.467 0.244 0.133 0.444 0.244 0.6 0.333l-0.089 0.356-0.6 2.178c-0.578-0.667-1.289-1.178-2.067-1.489-0.867-0.333-1.756-0.511-2.667-0.511-0.489 0-0.978 0.067-1.467 0.222s-0.933 0.378-1.311 0.667c-0.4 0.311-0.711 0.689-0.956 1.156s-0.378 1.022-0.378 1.667c0 0.022 0 0.044 0 0.089 0 0.289 0.044 0.578 0.111 0.822 0 0.022 0 0.022 0.022 0.044 0.022 0.111 0.067 0.222 0.111 0.333 0.044 0.133 0.089 0.244 0.156 0.356 0.244 0.467 0.578 0.844 1 1.156 0.4 0.289 0.889 0.511 1.422 0.667 0.978 0.267 2.111 0.267 3.2 0.044 0.511-0.111 1-0.267 1.444-0.444 0.467-0.2 0.889-0.422 1.289-0.711 0.089-0.067 0.178-0.133 0.244-0.178s0.111-0.089 0.178-0.133c0.067-0.067 0.133-0.111 0.2-0.178l-0.778 2.711z" fill="#010101"></path>
</svg>
