<?xml version="1.0" encoding="utf-8"?>
<!-- Generator: Adobe Illustrator 18.1.0, SVG Export Plug-In . SVG Version: 6.00 Build 0)  -->
<!DOCTYPE svg PUBLIC "-//W3C//DTD SVG 1.1//EN" "http://www.w3.org/Graphics/SVG/1.1/DTD/svg11.dtd">
<svg version="1.1" id="Layer_1" xmlns="http://www.w3.org/2000/svg" xmlns:xlink="http://www.w3.org/1999/xlink" x="0px" y="0px"
	 viewBox="184 -184 512 512" enable-background="new 184 -184 512 512" xml:space="preserve">
<g id="icomoon-ignore">
</g>
<path fill="#FFFFFF" d="M498.9-106.7L498.9-106.7H381.1c-68.2,0-123.8,60.5-123.8,134.6c0,63.1,40,124.9,95.8,131.1l-19.8,101.1
	l131.3-97.7h34.2c68.2,0,123.8-60.5,123.8-134.6S567.4-106.7,498.9-106.7L498.9-106.7z M485.8,31.7l-36.6,42.5
	c-1.8,1.8-6.7,8.4-6.7,8.4s-5.1-6.7-6.7-8.7l-36.5-43.1c0-0.3-0.4-0.4-0.4-0.7c-3.5-4.9-5.5-10.9-5.5-17.3
	c0-16.3,13.1-29.4,29.4-29.4c7.6,0,14.9,2.9,20.5,8c5.5-5.1,12.9-8,20.5-8l0,0l0,0l0,0c16.3,0,29.4,13.1,29.1,29.5
	C492.6,19.8,490.2,26.5,485.8,31.7L485.8,31.7z"/>
</svg>
