<?xml version="1.0" encoding="utf-8"?>
<!-- Generator: Adobe Illustrator 18.1.0, SVG Export Plug-In . SVG Version: 6.00 Build 0)  -->
<svg version="1.1" xmlns="http://www.w3.org/2000/svg" xmlns:xlink="http://www.w3.org/1999/xlink" x="0px" y="0px"
	 viewBox="0 0 654.6 188.1" enable-background="new 0 0 654.6 188.1" xml:space="preserve">
<g id="Layer_1">
	<g>
		<path fill="#231F20" d="M267.8,36.9L260,91.4c-8.8,7-14,9.9-20.5,9.9c-4,0-5.9-1.6-5.2-7.2l8.3-57.2h-32.9l-9.2,66.4
			c-2.3,16,5.9,25.6,23.9,25.6c12.6,0,24.3-5.8,37.6-18.5l0.2,16h25.6l12.4-89.5H267.8z"/>
		<path fill="#231F20" d="M306.3,58.3c-2,13.9,3.1,24.1,19.1,29.5l20,6.8c8.1,2.7,10.4,3.4,10.1,6.3c-0.5,3.4-4.5,4.3-24.1,4.3
			c-10.1,0-23.9-0.2-29.3-0.2l-2.7,19.6c17.3,2.9,29,3.6,42.8,3.6c26.3,0,41.9-3.8,44.6-26.6c1.8-14.6-5-23-19.6-27.7l-20.7-6.7
			c-7.2-2.3-9.5-3.6-9.2-6.5c0.5-3.1,3.8-3.2,16.7-3.2c11.3,0,22.9,0.2,34.6,0.4l2.9-19.6c-10.4-2.2-29.5-3.8-43.4-4
			C318.7,34.4,308.5,42.3,306.3,58.3z"/>
		<path fill="#231F20" d="M449.9,34.4c-32.2,0-49.1,8.8-53.3,46.1c-3.4,31.3,7,48.1,45.2,48.1c13.3,0,29-1.8,41-7.2l-2.2-20.3
			c-10.8,1.3-27.7,2.2-35.6,2.2c-10.1,0-14.8-1.8-15.1-11.3l24.3-1.8c23.6-1.8,34.9-6.7,37.4-23.4C494.6,46.1,485.2,34.4,449.9,34.4
			z M460.2,63.4c-0.7,7.7-5,9-13.1,9.7l-15.1,1.4c2.9-14.6,6.5-17.8,17.5-18C458.4,56.3,460.7,57.4,460.2,63.4z"/>
		<path fill="#231F20" d="M538,103c-6.8,0-8.5-1.4-7.6-7l13.7-95.6h-32.6l-14.6,102.8c-2,15.8,8.3,25.6,26.8,25.6
			c5.6,0,18.4-1.1,23.6-3.8l-1.8-22H538z"/>
		<path fill="#231F20" d="M619.7,36.9c-4.5,29.7-10.1,49.5-19.1,68.9h-5.8c-1.6,0-2.9-1.3-2.9-2.9l-4.7-66.1h-35.6l12.8,80.1
			c0.9,5.4,5.2,9.4,11.2,9.4h12.6c-10.1,12.1-20.7,14.4-33.7,18.4l2.7,18.5c28.8,0.2,50-12.2,68-42.3c8.5-14.8,24.5-52.9,29.3-84.1
			H619.7z"/>
		<path fill="#231F20" d="M162.9,34.4c-13.1,0-36,2-49.7,4.5l-0.5,21.2c15.1-0.9,29.5-1.3,38.5-1.3c9.4,0,11.8,2.7,10.8,10.3
			l-0.3,2.2h-29.7c-17.8,0-30,8.6-32.2,22.9l-1.4,9c-2.6,16.7,9.3,25.6,26,25.6c15.5,0,26.8-7.9,34.3-15.5l1,13.1h25.9l9-57.1
			C198.9,42.7,187,34.4,162.9,34.4z M157.3,99.5c-6.5,3.8-13.4,6.1-18.4,6.1c-6.1,0-8.4-2.5-7.7-7.2l0.5-3.1c0.7-4.1,3.2-6.8,8.7-7
			h18.7L157.3,99.5z"/>
		<path fill="#231F20" d="M89.2,98.3c-11.3,1.1-19.2,1.4-36.9,1.4c-15.3,0-18.2-14.1-15.1-34.2c3.9-25.6,11.5-36.7,26.7-36.7
			c15.8,0,22.1,0.2,34.7,0.5l4-24.7C91,1.4,81.5,0,63.5,0C23.5,0,8.8,13.9,1.9,63c-6.7,47.9,7,65.5,47,65.5
			c17.6,0,29.8-1.4,42.6-5.4c0,0-2.8-2.7-3.1-10.1C88,105.7,89.2,98.3,89.2,98.3z"/>
	</g>
	<text transform="matrix(1 0 0 1 222.422 188.1393)" fill="#231F20" font-family="'HurmeGeometricSans2-Regular'" font-size="60">ecommerce</text>
</g>
<g id="spacers" display="none">
</g>
<g id="Layer_3">
</g>
</svg>
