<?xml version="1.0" encoding="utf-8"?>
<!-- Generator: Adobe Illustrator 18.1.0, SVG Export Plug-In . SVG Version: 6.00 Build 0)  -->
<!DOCTYPE svg PUBLIC "-//W3C//DTD SVG 1.1//EN" "http://www.w3.org/Graphics/SVG/1.1/DTD/svg11.dtd">
<svg version="1.1" id="Layer_1" xmlns="http://www.w3.org/2000/svg" xmlns:xlink="http://www.w3.org/1999/xlink" x="0px" y="0px"
	 viewBox="184 -184 512 512" enable-background="new 184 -184 512 512" xml:space="preserve">
<path fill="#57B9FC" d="M466.8-28.6c-8.6,0-16.9,3.3-23.3,9.1c-6.3-5.8-14.7-9.1-23.3-9.1c-18.5,0-33.4,14.9-33.4,33.4
	c0,7.3,2.3,14.2,6.3,19.7c0,0.3,0.5,0.5,0.5,0.8l41.5,49c1.8,2.3,7.6,9.9,7.6,9.9s5.6-7.6,7.6-9.6l41.7-48.3
	c5.1-6.1,7.8-13.7,7.8-21.2C500.2-13.7,485.3-28.6,466.8-28.6L466.8-28.6L466.8-28.6z"/>
<path fill="#57B9FC" d="M507-94.9c57.6,0,104.4,52.3,104.4,116.8S564.6,138.7,507,138.7h-51.1l-9.6,7.1l-73.8,54.9l4.6-22.8
	l7.6-38.7l-39.2-4.3c-41.5-4.6-76.6-56.4-76.6-113c0-64.5,46.8-116.8,104.4-116.8H507z M507-131.3L507-131.3H373
	c-77.6,0-140.8,68.8-140.8,153.2c0,71.8,45.5,142.1,109,149.2l-22.5,115l149.4-111.2H507c77.6,0,140.8-68.8,140.8-153.2
	S584.9-131.3,507-131.3L507-131.3L507-131.3z"/>
</svg>
