<?xml version="1.0" encoding="utf-8"?>
<!-- Generated by IcoMoon.io -->
<!DOCTYPE svg PUBLIC "-//W3C//DTD SVG 1.1//EN" "http://www.w3.org/Graphics/SVG/1.1/DTD/svg11.dtd">
<svg version="1.1" xmlns="http://www.w3.org/2000/svg" xmlns:xlink="http://www.w3.org/1999/xlink" width="32" height="32" viewBox="0 0 32 32">
<path d="M24.844 22.978c-0.022-0.067-0.067-0.133-0.111-0.2-0.356-0.356-1.311 0-2.111 0.8s-1.156 1.733-0.8 2.111c0.044 0.044 0.111 0.089 0.2 0.111 0.067 0.022 0.111 0.022 0.2 0.022l3.089 0.444-0.444-3.089c0-0.067 0-0.133-0.022-0.2z" fill="rgb(68, 68, 68)"></path>
<path d="M24.467 20.8l-3.933-3.911 5.778-5.778-4.933-4.933-5.778 5.778-1.489-1.489c-0.578-0.578-2.067-0.022-3.333 1.244-0.089 0.089-0.178 0.2-0.267 0.289l10.333 10.333c0.089-0.089 0.178-0.2 0.267-0.289 1.289-1.267 2.778-1.822 3.356-1.244z" fill="rgb(68, 68, 68)"></path>
<path d="M9.778 12.978c-0.511 0.867-0.644 1.667-0.244 2.044l1.489 1.489-5.933 5.933 5.089 4.778 5.778-5.778 3.911 3.911c-0.378-0.378-0.267-1.178 0.244-2.044l-10.333-10.333z" fill="rgb(68, 68, 68)"></path>
<path d="M8.778 14.289c-0.578-0.578-0.022-2.067 1.244-3.333s2.756-1.822 3.333-1.244l-1.889-1.889c-0.844-0.844-2.556-0.511-3.822 0.756s-1.6 2.978-0.756 3.822l1.889 1.889z" fill="rgb(68, 68, 68)"></path>
<path d="M7.73 20.901l0.534-0.534 2.184 2.185-0.534 0.534-2.184-2.185z" fill="rgb(255, 255, 255)"></path>
<path d="M9.674 18.957l0.534-0.534 2.641 2.639-0.534 0.534-2.641-2.639z" fill="rgb(255, 255, 255)"></path>
<path d="M19.427 9.214l0.534-0.534 2.184 2.185-0.534 0.534-2.184-2.185z" fill="rgb(255, 255, 255)"></path>
<path d="M17.474 11.155l0.534-0.534 2.639 2.641-0.534 0.534-2.639-2.641z" fill="rgb(255, 255, 255)"></path>
</svg>
