<?xml version="1.0" encoding="utf-8"?>
<!-- Generator: Adobe Illustrator 18.1.0, SVG Export Plug-In . SVG Version: 6.00 Build 0)  -->
<svg version="1.1" xmlns="http://www.w3.org/2000/svg" xmlns:xlink="http://www.w3.org/1999/xlink" x="0px" y="0px"
	 viewBox="0 0 144 144" enable-background="new 0 0 144 144" xml:space="preserve">
<g id="icons_v1" display="none">
	<g display="inline">
		<defs>
			<rect id="SVGID_1_" y="9.7" width="144" height="124.7"/>
		</defs>
		<clipPath id="SVGID_2_">
			<use xlink:href="#SVGID_1_"  overflow="visible"/>
		</clipPath>
		<g clip-path="url(#SVGID_2_)">
			
				<image overflow="visible" width="400" height="400" xlink:href="../Downloads/5_adl.jpg"  transform="matrix(0.6755 0 0 0.6755 -63.2192 -17.8859)">
			</image>
		</g>
	</g>
</g>
<g id="icons_v2">
	<g>
		<path d="M135.2,62.2c0-0.1,0-0.2,0-0.2c-0.4-7.4-12.7-12.4-29.1-15.1c-1-1.5-73.2,0.7-74,1.1C18.4,50.9,8.8,55.6,8.8,62.3
			c0,0.7,0.1,1.3,0.3,2c0,0.2,0.1,0.5,0.1,0.7l14.9,34.5c2.5,10.6,25.4,16.1,47.9,16.1c22.6,0,45.5-5.5,48-16.1L134.2,66
			c0.6-1,0.9-2.1,1-3.2c0-0.1,0-0.1,0-0.2c0-0.1,0-0.1,0-0.2C135.2,62.3,135.2,62.2,135.2,62.2z M63.1,100.7c-1.2,0.3-2.3-0.3-3-1.4
			c-1.3-1.9-2-4.7-1-6.2c0.5-0.7,3.6,0.8,4.7,1.7c0.6,0.5,1.1,1.2,1.3,2C65.5,98.6,64.6,100.3,63.1,100.7z M64.7,79.8
			c2.4-1,3.6,5.7,3.8,7.4c0.2,1.7-0.6,3.3-2,3.9C61.5,93.2,58.5,82.5,64.7,79.8z M80.7,107c-2.3,0.9-4.2,0.9-5.9,0.4
			c-1.3,1.2-3,2.1-5.4,2.3c-2.2,0.2-4.3-1.4-4.7-3.3c-0.6-2.3,0-3.5,2-4.7c2.2-1.9,1.3-4.1,1.4-6.2c0.1-1.7,1.3-3.2,3-3.6
			c1.8-0.4,3.6,0.4,4.4,2c1,1.9,1.5,4.2,4.1,4.8c2.2,0.2,3.2,0.9,3.8,3.3C83.8,103.9,82.7,106.3,80.7,107z M71.4,78.2
			c6.7-0.4,8.8,10.6,3.5,10.9c-1.5,0.1-3-1-3.5-2.6C70.8,84.9,68.9,78.4,71.4,78.2z M84.4,93.6c-0.1,1.3-0.9,2.3-2.1,2.6
			c-1.5,0.4-3.1-0.8-3.5-2.5c-0.2-0.9-0.1-1.7,0.3-2.4c0.6-1.3,2.6-4,3.4-3.6C84,88.4,84.7,91.3,84.4,93.6z M72,74.4
			c-37,0-57.2-8-57.2-12c0-1.1,1.6-2.6,4.7-4.1c-1,0.8-1.4,1.5-1.4,2.1c0,4,19.1,11.7,54,11.7c34.9,0,54-7.7,54-11.7
			c0-0.7-0.5-1.4-1.5-2.2c3.2,1.5,4.8,3,4.8,4.1C129.2,66.4,109,74.4,72,74.4z M10.4,59.3c0,8.3,27.5,15.1,61.5,15.1
			s61.5-6.8,61.5-15.1s-27.5-15.1-61.5-15.1S10.4,51,10.4,59.3z"/>
		<ellipse fill="#FFFFFF" cx="70.6" cy="57.4" rx="55.9" ry="15.3"/>
		<path fill="none" stroke="#000000" stroke-width="3" stroke-miterlimit="10" d="M30.1,48.2c0,0,4.3-11.1,12.8-4.8c0,0,2-6.7,8-4.2
			c0,0,6.8-14.4,19.7-3.6c0,0,8.3-7.8,12.9,0.9c0,0,4.8-2.2,8.4,3.5c0,0,12.1-6.3,15.3,5.6c0,0,11.8-3.6,12.7,5.5
			c8.6,1.3,10.3,5.7,10.4,5.9c2.2,4.2,2.3,11.7-1.2,13.7c-3.5,2-23.5,5.7-23.5,5.7l-46.2-0.5l-40-4.5l-8.6-9.6l3-4.5
			c0,0,0.2-5.1,6-8.5C25.6,45.5,30.1,48.2,30.1,48.2z"/>
	</g>
</g>
<g id="icons_v3" display="none">
	<path d="M67,46.9c1-2.6,4.2-4.2,7.3-3.6l5.3,1.1l-2-5c-0.5-1.2-0.5-2.5,0-3.8c1-2.6,4-4.2,7.1-3.6l2.8,0.5l0.5-2.8
		c0.1-0.3,0.1-0.6,0.2-0.8c1.1-2.9,4.9-4.5,8.3-3.3c1.9,0.6,3.3,2,4,3.7l1.2,3.1l2.9-1.6c1.7-0.9,3.8-1.1,5.6-0.4
		c3.3,1.1,5.1,4.3,4.1,7.3l-1,3l3,0.8c0.2,0,0.4,0.1,0.6,0.2c1.7,0.6,3.1,1.8,3.9,3.4c0.6,1.3,0.7,2.8,0.2,4.1
		c-0.6,1.5-1.8,2.7-3.5,3.3H68C66.8,50.6,66.4,48.7,67,46.9z"/>
</g>
<g id="icons_v4" display="none">
	<path d="M67,46.9c1-2.6,4.2-4.2,7.3-3.6l5.3,1.1l-2-5c-0.5-1.2-0.5-2.5,0-3.8c1-2.6,4-4.2,7.1-3.6l2.8,0.5l0.5-2.8
		c0.1-0.3,0.1-0.6,0.2-0.8c1.1-2.9,4.9-4.5,8.3-3.3c1.9,0.6,3.3,2,4,3.7l1.2,3.1l2.9-1.6c1.7-0.9,3.8-1.1,5.6-0.4
		c3.3,1.1,5.1,4.3,4.1,7.3l-1,3l3,0.8c0.2,0,0.4,0.1,0.6,0.2c1.7,0.6,3.1,1.8,3.9,3.4c0.6,1.3,0.7,2.8,0.2,4.1
		c-0.6,1.5-1.8,2.7-3.5,3.3H68C66.8,50.6,66.4,48.7,67,46.9z"/>
	<g display="inline">
		<g>
			<path d="M82.1,120.2c-0.1-0.1-0.2-0.1-0.3-0.1c-1.8-0.6-3.4-1.4-5-2.3c-1.6-0.9-3.1-1.8-4.7-2.6c-1.2-0.6-2.4-1.2-3.6-1.7
				c-1.5-0.6-3-1.1-4.5-1.4c-1.1-0.2-2.3-0.3-3.4-0.4c-2-0.1-4,0-5.9,0c-1.6,0-3.2,0.1-4.8,0c-1.1-0.1-2.2-0.2-3.3-0.4
				c-1.3-0.3-2.6-0.7-3.8-1.3c-1.8-1-3.2-2.3-4.4-4c-1.7-2.5-2.4-5.2-2.3-8.2c0-1.4,0.3-2.7,0.7-4c0.8-2.5,2.1-4.7,3.8-6.8
				c1.7-2,3.7-3.7,5.9-5.1c0.9-0.5,1.7-1,2.7-1.5c1.9-1,3.6-2.1,5.3-3.4c1.8-1.4,3.5-2.8,5.2-4.3c1.5-1.3,2.9-2.5,4.5-3.7
				c1.2-0.9,2.5-1.8,3.9-2.5c1.5-0.8,3-1.3,4.7-1.5c1.3-0.1,2.6-0.1,3.8,0.2c1.9,0.4,3.7,1.1,5.4,2.2c1.8,1.1,3.3,2.6,4.4,4.4
				c0.9,1.4,1.6,3,2.2,4.6c0.6,1.7,1.2,3.4,1.8,5.1c0.6,1.8,1.3,3.6,2,5.3c0.9,2,1.9,3.8,3.1,5.6c1.6,2.3,2.9,4.7,3.7,7.4
				c0.7,2.2,1.1,4.4,1.1,6.7c0,1.6-0.2,3.1-0.6,4.7c-1,3.3-2.8,5.9-5.7,7.7c-2.3,1.4-4.8,2.2-7.5,2.2c-0.7,0-1.4-0.1-2.1-0.2
				c-0.1,0-0.1,0-0.2,0C83.3,120.5,82.7,120.4,82.1,120.2z"/>
		</g>
		<g>
			<path d="M102.8,37.4c0.2,0.1,0.3,0.1,0.5,0.2c1.7,0.7,3.1,1.8,4.1,3.4c1,1.6,1.6,3.4,1.8,5.2c0.2,1.5,0.1,3-0.1,4.4
				c-0.6,3.8-2.2,7.2-4.6,10.1c-1.3,1.6-2.9,2.9-4.6,4c-1.6,0.9-3.3,1.6-5.1,1.7c-1.3,0.1-2.5,0.1-3.7-0.3c-2.6-0.8-4.4-2.5-5.5-4.9
				c-0.8-1.6-1.1-3.4-1.2-5.2c-0.1-1.2,0-2.3,0.2-3.5c0.8-4.5,2.8-8.4,6.2-11.6c1.6-1.5,3.3-2.6,5.4-3.4c1.4-0.5,2.9-0.8,4.4-0.7
				c0.3,0,0.6,0.1,0.9,0.1c0.1,0,0.1,0,0.2,0C102,37.2,102.4,37.3,102.8,37.4z"/>
		</g>
		<g>
			<path d="M33,53.9c0.1-0.1,0.1-0.3,0.2-0.4c0.6-1.7,1.5-3.2,2.7-4.5c1.2-1.2,2.5-2,4.1-2.4c1.4-0.4,2.7-0.3,4.1,0
				c1.7,0.5,3.2,1.3,4.4,2.6c1.5,1.4,2.6,3.1,3.4,5.1c1,2.4,1.4,4.9,1.2,7.5c0,1-0.2,1.9-0.4,2.8c-0.4,1.8-1.1,3.4-2.2,4.9
				c-0.8,1.1-1.7,2-2.8,2.7c-1.5,0.9-3.1,1.3-4.8,1.2c-1.8-0.1-3.4-0.8-4.8-1.8c-1.3-1-2.4-2.2-3.3-3.6c-1-1.6-1.7-3.3-2.1-5.1
				c-0.4-1.9-0.5-3.8-0.3-5.8c0-0.4,0.1-0.8,0.2-1.2c0,0,0-0.1,0-0.1C32.8,55,32.9,54.5,33,53.9z"/>
		</g>
		<g>
			<path d="M56.7,39.8c0.5-2.1,1.4-4,2.6-5.8c1-1.3,2.1-2.5,3.5-3.4c1.5-1,3.1-1.5,4.9-1.5c1.9,0,3.6,0.6,5.1,1.7
				c1.3,0.9,2.3,2.1,3.1,3.4c1.4,2.3,2.2,4.9,2.4,7.5c0.1,1.6,0.1,3.1-0.1,4.7c-0.1,0.6-0.2,1.2-0.3,1.8c-0.2,1.1-0.6,2.2-1.1,3.2
				c-1,2.3-2.4,4.3-4.3,5.8c-1.3,1-2.8,1.7-4.4,2c-1.4,0.2-2.8,0.1-4.1-0.4c-1.7-0.6-3.2-1.7-4.3-3.1c-1.1-1.3-1.9-2.8-2.5-4.4
				C56.4,49,56,46.6,56.1,44C56.2,42.6,56.4,41.3,56.7,39.8z"/>
		</g>
		<g>
			<path d="M100,76.9c0.6-2.1,1.5-4.1,2.9-5.8c1.2-1.6,2.7-3,4.4-4.1c1.9-1.2,4-2,6.2-2.3c1.2-0.1,2.4-0.1,3.6,0.3
				c2.2,0.6,3.9,1.8,5.1,3.8c0.8,1.3,1.2,2.7,1.3,4.1c0.1,1,0.1,2.1-0.1,3.1c-0.1,0.7-0.3,1.4-0.5,2.1c-0.2,0.8-0.6,1.6-1,2.4
				c-1.4,2.7-3.4,4.9-5.9,6.6c-1.8,1.2-3.8,2-5.9,2.3c-1.2,0.2-2.4,0.2-3.6-0.1c-1.8-0.4-3.3-1.2-4.6-2.5c-1.1-1.1-1.7-2.5-2.1-4
				c-0.3-1.3-0.4-2.6-0.2-3.9C99.7,78.2,99.8,77.6,100,76.9z"/>
		</g>
	</g>
</g>
</svg>
