<?xml version="1.0" encoding="utf-8"?>
<!-- Generated by IcoMoon.io -->
<!DOCTYPE svg PUBLIC "-//W3C//DTD SVG 1.1//EN" "http://www.w3.org/Graphics/SVG/1.1/DTD/svg11.dtd">
<svg version="1.1" xmlns="http://www.w3.org/2000/svg" xmlns:xlink="http://www.w3.org/1999/xlink" width="32" height="32" viewBox="0 0 32 32">
<path d="M17.867 9.178c0 0-2.044-4.956 3-6.511 1.378 4.689-2.133 6.067-3 6.511z" fill="#000000"></path>
<path d="M18.289 21.578c0 0 2.444-0.822 3.044 1.644-2.311 0.533-2.867-1.2-3.044-1.644z" fill="#000000"></path>
<path d="M11 14.844c0 0-5.2-0.844-3.889-5.867 4.6 1.267 3.956 4.911 3.889 5.867z" fill="#000000"></path>
<path d="M19.8 18.044c-2.356 0.4-3.778 1.733-3.778 1.733 0.422-2.2 0.978-3.667 1.244-4.267 1.711-0.311 5.8-1.244 5.756-7.111-5.844 0.111-6.244 5.044-6.222 6.667-0.689 0.956-1.222 2.089-1.644 3.267-0.711-1.978-0.844-3.933-0.844-4.867 1.089-1.111 3.622-3.889 0.6-8.178-3.822 2.756-2.378 6.289-1.444 7.8-0.356 4.956 1.244 6.956 1.244 6.956v0c-0.156 0.556-0.267 1-0.378 1.556 0 0-1.133-1.8-2.867-2.867-0.644-1.222-2.267-3.867-6.444-2.578 1.222 3.8 4.333 3.556 5.822 3.178 0 0 2.622 1.622 3.2 3.844-0.4 2.933-0.311 5.289-0.311 5.289 0 1.089 1.8 1.2 1.8-0.244-0.178-2.644-0.044-4.956 0.244-6.889 1.378-1.844 4.467-2.422 4.467-2.422v0c3.378 2.489 6.267-1.067 6.267-1.067-0.778-0.511-3.444-2.756-6.711 0.2z" fill="#000000"></path>
</svg>
