<?xml version="1.0" encoding="utf-8"?>
<!-- Generator: Adobe Illustrator 18.1.0, SVG Export Plug-In . SVG Version: 6.00 Build 0)  -->
<svg version="1.1" id="Layer_1" xmlns="http://www.w3.org/2000/svg" xmlns:xlink="http://www.w3.org/1999/xlink" x="0px" y="0px"
	 viewBox="-289 381 32 32" enable-background="new -289 381 32 32" xml:space="preserve">
<path fill="#231F20" d="M-264.2,404c0-0.1-0.1-0.1-0.1-0.2c-0.4-0.4-1.3,0-2.1,0.8c-0.8,0.8-1.2,1.7-0.8,2.1c0,0,0.1,0.1,0.2,0.1
	c0.1,0,0.1,0,0.2,0l3.1,0.4l-0.4-3.1C-264.1,404.1-264.1,404-264.2,404L-264.2,404z"/>
<path fill="#231F20" d="M-280.2,395.3c-0.6-0.6,0-2.1,1.2-3.3s2.8-1.8,3.3-1.2l-1.9-1.9c-0.8-0.8-2.6-0.5-3.8,0.8
	c-1.3,1.3-1.6,3-0.8,3.8L-280.2,395.3L-280.2,395.3z"/>
<path fill="#231F20" d="M-268.9,404.3l-10.3-10.3h0c-0.5,0.9-0.6,1.7-0.2,2l1.5,1.5l-5.9,5.9l5.1,4.8l5.8-5.8l3.9,3.9
	C-269.5,406-269.4,405.2-268.9,404.3z M-279.1,404.1l-2.2-2.2l0.5-0.5l2.2,2.2L-279.1,404.1z M-276.7,402.6l-2.6-2.6l0.5-0.5
	l2.6,2.6L-276.7,402.6z"/>
<polygon fill="#231F20" points="-264.5,401.8 -264.5,401.8 -264.5,401.8 "/>
<path fill="#231F20" d="M-262.7,392.1l-4.9-4.9l-5.8,5.8l-1.5-1.5c-0.6-0.6-2.1,0-3.3,1.2c-0.1,0.1-0.2,0.2-0.3,0.3l10.3,10.3
	c0.1-0.1,0.2-0.2,0.3-0.3c1.3-1.3,2.8-1.8,3.4-1.2l-3.9-3.9L-262.7,392.1z M-269,389.7l2.2,2.2l-0.5,0.5l-2.2-2.2L-269,389.7z
	 M-271.5,392.2l0.5-0.5l2.6,2.6l-0.5,0.5L-271.5,392.2z"/>
</svg>
