<?xml version="1.0" encoding="utf-8"?>
<!-- Generated by IcoMoon.io -->
<!DOCTYPE svg PUBLIC "-//W3C//DTD SVG 1.1//EN" "http://www.w3.org/Graphics/SVG/1.1/DTD/svg11.dtd">
<svg version="1.1" xmlns="http://www.w3.org/2000/svg" xmlns:xlink="http://www.w3.org/1999/xlink" width="32" height="32" viewBox="0 0 32 32">
<path d="M25.728 19.808c-1.056-1.952-2.656-3.328-3.904-4-0.288 0.224-0.608 0.416-0.96 0.608 1.184 1.184 2.080 2.784 2.496 4.704 1.376 0.608 2.496 2.048 3.008 3.808 0.16-0.128 0.32-0.32 0.384-0.544 0.384-1.12-0.256-3.136-1.024-4.576zM8.64 21.12c0.416-1.92 1.312-3.52 2.496-4.704-0.32-0.192-0.64-0.384-0.96-0.608-1.248 0.704-2.88 2.080-3.904 4-0.768 1.408-1.408 3.424-1.024 4.544 0.096 0.224 0.224 0.416 0.384 0.544 0.544-1.76 1.632-3.168 3.008-3.776zM16.48 28.192c-0.032-0.128-0.032-0.224-0.064-0.352-0.128-0.832-0.064-1.664 0.192-2.496 0.416-1.28 1.152-2.368 2.016-3.168 0.096-0.064 0.16-0.16 0.256-0.224 0.896-0.736 1.952-1.152 2.976-1.152 0.16 0 0.32 0 0.48 0.032 0.224 0.032 0.448 0.096 0.64 0.16-0.416-1.792-1.28-3.296-2.432-4.384-1.376 0.704-2.912 1.088-4.576 1.088-1.632 0-3.2-0.384-4.576-1.088-1.152 1.088-2.016 2.592-2.432 4.384 0.224-0.064 0.416-0.128 0.64-0.16 1.184-0.16 2.4 0.288 3.424 1.152 0.096 0.064 0.192 0.16 0.256 0.224 0.896 0.8 1.6 1.888 2.048 3.168 0.256 0.832 0.32 1.664 0.192 2.496-0.032 0.128-0.032 0.224-0.064 0.352-0.064 0.288-0.16 0.576-0.288 0.832-0.032 0.096-0.096 0.192-0.128 0.32 0.064 0 0.16 0 0.224 0 0.224 0 0.448 0 0.64-0.032 0.32 0 0.608 0.032 0.896 0-0.064-0.096-0.096-0.192-0.128-0.32-0.032-0.256-0.128-0.544-0.192-0.832zM6.88 8.352c0.16 0.128 0.352 0.224 0.544 0.32-0.288 2.048 0.48 4.096 1.92 5.664 0.096 0.096 0.192 0.192 0.288 0.32 0 0 0 0 0 0 0.32 0.288 0.64 0.576 0.992 0.832 0 0 0 0 0 0 0.128 0.096 0.224 0.16 0.352 0.224 0 0 0 0 0 0 0.128 0.064 0.224 0.16 0.352 0.224 0 0 0.032 0 0.032 0 0.128 0.064 0.224 0.128 0.352 0.192 0 0 0.032 0 0.032 0.032 0.128 0.064 0.224 0.128 0.352 0.16 0.032 0 0.032 0.032 0.064 0.032 0.128 0.064 0.224 0.096 0.352 0.128 0.032 0 0.064 0.032 0.096 0.032 0.128 0.032 0.224 0.096 0.352 0.128 0.032 0 0.064 0.032 0.096 0.032 0.128 0.032 0.224 0.064 0.352 0.096 0.032 0 0.064 0.032 0.128 0.032 0.096 0.032 0.224 0.064 0.352 0.096 0.032 0 0.096 0.032 0.128 0.032 0.096 0.032 0.224 0.032 0.352 0.064 0.064 0 0.096 0.032 0.16 0.032 0.096 0.032 0.224 0.032 0.352 0.032 0.064 0 0.096 0 0.16 0.032 0.128 0 0.224 0.032 0.352 0.032 0.064 0 0.096 0 0.16 0 0.16 0 0.352 0 0.512 0v0c0 0 0 0 0 0 0.16 0 0.352 0 0.512 0 0.064 0 0.096 0 0.16 0 0.128 0 0.224 0 0.352-0.032 0.064 0 0.096 0 0.16-0.032 0.128 0 0.224-0.032 0.352-0.032 0.032 0 0.096-0.032 0.128-0.032 0.128-0.032 0.224-0.032 0.352-0.064 0.032 0 0.096-0.032 0.128-0.032 0.128-0.032 0.224-0.064 0.352-0.096 0.032 0 0.064-0.032 0.096-0.032 0.128-0.032 0.224-0.064 0.352-0.096 0.032 0 0.064-0.032 0.096-0.032 0.128-0.032 0.256-0.096 0.352-0.128 0.032 0 0.032-0.032 0.064-0.032 0.128-0.032 0.256-0.096 0.384-0.16 0 0 0.032 0 0.032-0.032 0.128-0.064 0.256-0.128 0.384-0.16 0 0 0.032 0 0.032 0 0.128-0.064 0.256-0.128 0.384-0.192 0 0 0 0 0 0 0.128-0.064 0.256-0.16 0.384-0.224 0 0 0 0 0 0 0.64-0.384 1.184-0.864 1.664-1.376v0c1.44-1.568 2.176-3.616 1.92-5.664 0.192-0.096 0.352-0.192 0.544-0.32 1.632-1.312 2.016-3.872 0.768-5.696s-3.648-2.272-5.408-0.928c-0.192 0.16-0.384 0.32-0.544 0.512-1.248-0.704-2.624-1.088-4.064-1.088-1.408 0-2.816 0.384-4.064 1.056-0.16-0.192-0.352-0.352-0.544-0.512-1.728-1.312-4.16-0.896-5.408 0.928-1.248 1.856-0.832 4.416 0.896 5.728zM16 9.024c1.344 0 2.624 0.544 3.36 1.44 0.544 0.64 0.736 1.408 0.608 2.112-0.32 1.696-2.016 2.976-3.936 3.008-1.92 0-3.616-1.312-3.936-3.008-0.128-0.736 0.064-1.472 0.608-2.112 0.672-0.928 1.952-1.44 3.296-1.44zM21.888 3.008c0.896-0.672 2.144-0.448 2.784 0.48 0.64 0.96 0.448 2.272-0.448 2.944-0.064 0.064-0.128 0.096-0.192 0.128-0.544-1.312-1.376-2.432-2.4-3.296 0.064-0.096 0.16-0.16 0.256-0.256zM18.624 6.112c0.384 0 0.672 0.448 0.672 1.024s-0.32 1.024-0.672 1.024c-0.384 0-0.672-0.448-0.672-1.024s0.288-1.024 0.672-1.024zM13.408 6.112c0.384 0 0.672 0.448 0.672 1.024s-0.32 1.024-0.672 1.024c-0.384 0-0.672-0.448-0.672-1.024s0.288-1.024 0.672-1.024zM7.328 3.488c0.64-0.96 1.888-1.152 2.784-0.48 0.096 0.064 0.192 0.16 0.288 0.256-1.024 0.864-1.856 1.984-2.4 3.296-0.064-0.032-0.128-0.096-0.192-0.128-0.896-0.672-1.12-1.984-0.48-2.944zM22.304 21.216c-0.128-0.032-0.256-0.032-0.416-0.032-2.016 0-4.064 1.792-4.896 4.288-0.448 1.376-0.288 2.848 0.48 4.064 0.736 1.184 1.952 1.952 3.392 2.176 1.536 0.224 3.040-0.288 4.064-1.408 0.896-0.96 1.376-2.24 1.312-3.584-0.128-2.816-1.824-5.184-3.936-5.504zM21.056 30.112c-0.992-0.128-1.824-0.672-2.336-1.504s-0.64-1.888-0.32-2.816c0.576-1.728 1.984-2.976 3.392-2.976 0.096 0 0.192 0 0.288 0.032 1.472 0.224 2.656 1.856 2.752 3.84 0.032 0.928-0.288 1.824-0.928 2.464-0.736 0.736-1.792 1.088-2.848 0.96zM15.008 25.472c-0.832-2.496-2.88-4.288-4.896-4.288-0.128 0-0.288 0-0.416 0.032-2.112 0.32-3.808 2.688-3.936 5.536-0.064 1.312 0.416 2.624 1.312 3.552s2.080 1.44 3.392 1.44c0 0 0 0 0 0 0.224 0 0.448-0.032 0.672-0.032 1.44-0.192 2.624-0.96 3.392-2.176 0.768-1.184 0.928-2.688 0.48-4.064zM10.464 30.144v0c-0.896 0-1.728-0.352-2.336-0.992-0.64-0.672-0.96-1.568-0.928-2.464 0.096-1.984 1.28-3.616 2.752-3.84 0.096 0 0.192-0.032 0.288-0.032 1.408 0 2.816 1.248 3.392 2.976 0.32 0.96 0.192 1.984-0.32 2.816s-1.344 1.376-2.336 1.504c-0.192 0.032-0.352 0.032-0.512 0.032zM16 14.528c1.152 0 2.144-0.544 2.592-1.44 0.032-0.096 0-0.192-0.064-0.224s-0.192 0-0.224 0.064c-0.352 0.736-1.184 1.184-2.112 1.248v-1.888c0.512-0.064 1.088-0.544 1.344-1.088 0.224-0.608-0.48-1.088-1.568-1.056-1.088 0-1.728 0.512-1.44 1.12 0.288 0.512 0.832 0.928 1.312 1.056v1.92c-0.96-0.064-1.76-0.512-2.112-1.248-0.032-0.064-0.128-0.128-0.224-0.064-0.096 0.032-0.128 0.128-0.064 0.224 0.416 0.832 1.408 1.376 2.56 1.376z" fill="#000000"></path>
</svg>
