<?xml version="1.0" encoding="utf-8"?>
<!-- Generated by IcoMoon.io -->
<!DOCTYPE svg PUBLIC "-//W3C//DTD SVG 1.1//EN" "http://www.w3.org/Graphics/SVG/1.1/DTD/svg11.dtd">
<svg version="1.1" xmlns="http://www.w3.org/2000/svg" xmlns:xlink="http://www.w3.org/1999/xlink" width="32" height="32" viewBox="0 0 32 32">
<path d="M18.244 26.711c-0.022-0.022-0.044-0.022-0.067-0.022-0.4-0.133-0.756-0.311-1.111-0.511s-0.689-0.4-1.044-0.578c-0.267-0.133-0.533-0.267-0.8-0.378-0.333-0.133-0.667-0.244-1-0.311-0.244-0.044-0.511-0.067-0.756-0.089-0.444-0.022-0.889 0-1.311 0-0.356 0-0.711 0.022-1.067 0-0.244-0.022-0.489-0.044-0.733-0.089-0.289-0.067-0.578-0.156-0.844-0.289-0.4-0.222-0.711-0.511-0.978-0.889-0.378-0.556-0.533-1.156-0.511-1.822 0-0.311 0.067-0.6 0.156-0.889 0.178-0.556 0.467-1.044 0.844-1.511 0.378-0.444 0.822-0.822 1.311-1.133 0.2-0.111 0.378-0.222 0.6-0.333 0.422-0.222 0.8-0.467 1.178-0.756 0.4-0.311 0.778-0.622 1.156-0.956 0.333-0.289 0.644-0.556 1-0.822 0.267-0.2 0.556-0.4 0.867-0.556 0.333-0.178 0.667-0.289 1.044-0.333 0.289-0.022 0.578-0.022 0.844 0.044 0.422 0.089 0.822 0.244 1.2 0.489 0.4 0.244 0.733 0.578 0.978 0.978 0.2 0.311 0.356 0.667 0.489 1.022 0.133 0.378 0.267 0.756 0.4 1.133 0.133 0.4 0.289 0.8 0.444 1.178 0.2 0.444 0.422 0.844 0.689 1.244 0.356 0.511 0.644 1.044 0.822 1.644 0.156 0.489 0.244 0.978 0.244 1.489 0 0.356-0.044 0.689-0.133 1.044-0.222 0.733-0.622 1.311-1.267 1.711-0.511 0.311-1.067 0.489-1.667 0.489-0.156 0-0.311-0.022-0.467-0.044-0.022 0-0.022 0-0.044 0-0.2-0.089-0.333-0.111-0.467-0.156z" fill="#000000"></path>
<path d="M22.844 8.311c0.044 0.022 0.067 0.022 0.111 0.044 0.378 0.156 0.689 0.4 0.911 0.756s0.356 0.756 0.4 1.156c0.044 0.333 0.022 0.667-0.022 0.978-0.133 0.844-0.489 1.6-1.022 2.244-0.289 0.356-0.644 0.644-1.022 0.889-0.356 0.2-0.733 0.356-1.133 0.378-0.289 0.022-0.556 0.022-0.822-0.067-0.578-0.178-0.978-0.556-1.222-1.089-0.178-0.356-0.244-0.756-0.267-1.156-0.022-0.267 0-0.511 0.044-0.778 0.178-1 0.622-1.867 1.378-2.578 0.356-0.333 0.733-0.578 1.2-0.756 0.311-0.111 0.644-0.178 0.978-0.156 0.067 0 0.133 0.022 0.2 0.022 0.022 0 0.022 0 0.044 0 0.067 0.067 0.156 0.089 0.244 0.111z" fill="#000000"></path>
<path d="M7.333 11.978c0.022-0.022 0.022-0.067 0.044-0.089 0.133-0.378 0.333-0.711 0.6-1 0.267-0.267 0.556-0.444 0.911-0.533 0.311-0.089 0.6-0.067 0.911 0 0.378 0.111 0.711 0.289 0.978 0.578 0.333 0.311 0.578 0.689 0.756 1.133 0.222 0.533 0.311 1.089 0.267 1.667 0 0.222-0.044 0.422-0.089 0.622-0.089 0.4-0.244 0.756-0.489 1.089-0.178 0.244-0.378 0.444-0.622 0.6-0.333 0.2-0.689 0.289-1.067 0.267-0.4-0.022-0.756-0.178-1.067-0.4-0.289-0.222-0.533-0.489-0.733-0.8-0.222-0.356-0.378-0.733-0.467-1.133-0.089-0.422-0.111-0.844-0.067-1.289 0-0.089 0.022-0.178 0.044-0.267 0 0 0-0.022 0-0.022 0.044-0.178 0.067-0.289 0.089-0.422z" fill="#000000"></path>
<path d="M12.6 8.844c0.111-0.467 0.311-0.889 0.578-1.289 0.222-0.289 0.467-0.556 0.778-0.756 0.333-0.222 0.689-0.333 1.089-0.333 0.422 0 0.8 0.133 1.133 0.378 0.289 0.2 0.511 0.467 0.689 0.756 0.311 0.511 0.489 1.089 0.533 1.667 0.022 0.356 0.022 0.689-0.022 1.044-0.022 0.133-0.044 0.267-0.067 0.4-0.044 0.244-0.133 0.489-0.244 0.711-0.222 0.511-0.533 0.956-0.956 1.289-0.289 0.222-0.622 0.378-0.978 0.444-0.311 0.044-0.622 0.022-0.911-0.089-0.378-0.133-0.711-0.378-0.956-0.689-0.244-0.289-0.422-0.622-0.556-0.978-0.178-0.511-0.267-1.044-0.244-1.622 0.022-0.311 0.067-0.6 0.133-0.933z" fill="#000000"></path>
<path d="M22.222 17.089c0.133-0.467 0.333-0.911 0.644-1.289 0.267-0.356 0.6-0.667 0.978-0.911 0.422-0.267 0.889-0.444 1.378-0.511 0.267-0.022 0.533-0.022 0.8 0.067 0.489 0.133 0.867 0.4 1.133 0.844 0.178 0.289 0.267 0.6 0.289 0.911 0.022 0.222 0.022 0.467-0.022 0.689-0.022 0.156-0.067 0.311-0.111 0.467-0.044 0.178-0.133 0.356-0.222 0.533-0.311 0.6-0.756 1.089-1.311 1.467-0.4 0.267-0.844 0.444-1.311 0.511-0.267 0.044-0.533 0.044-0.8-0.022-0.4-0.089-0.733-0.267-1.022-0.556-0.244-0.244-0.378-0.556-0.467-0.889-0.067-0.289-0.089-0.578-0.044-0.867 0.022-0.156 0.044-0.289 0.089-0.444z" fill="#000000"></path>
</svg>
