<?xml version="1.0" encoding="utf-8"?>
<!-- Generator: Adobe Illustrator 18.1.0, SVG Export Plug-In . SVG Version: 6.00 Build 0)  -->
<svg version="1.1" id="Layer_1" xmlns="http://www.w3.org/2000/svg" xmlns:xlink="http://www.w3.org/1999/xlink" x="0px" y="0px"
	 viewBox="-49 141 512 512" enable-background="new -49 141 512 512" xml:space="preserve">
<g id="icomoon-ignore" display="none">
	
		<line display="inline" opacity="0.3" fill="none" stroke="#449FDB" enable-background="new    " x1="-33" y1="141" x2="-33" y2="653"/>
	<line display="inline" fill="none" stroke="#449FDB" x1="-17" y1="141" x2="-17" y2="653"/>
	
		<line display="inline" opacity="0.3" fill="none" stroke="#449FDB" enable-background="new    " x1="-1" y1="141" x2="-1" y2="653"/>
	<line display="inline" fill="none" stroke="#449FDB" x1="15" y1="141" x2="15" y2="653"/>
	
		<line display="inline" opacity="0.3" fill="none" stroke="#449FDB" enable-background="new    " x1="31" y1="141" x2="31" y2="653"/>
	<line display="inline" fill="none" stroke="#449FDB" x1="47" y1="141" x2="47" y2="653"/>
	
		<line display="inline" opacity="0.3" fill="none" stroke="#449FDB" enable-background="new    " x1="63" y1="141" x2="63" y2="653"/>
	<line display="inline" fill="none" stroke="#449FDB" x1="79" y1="141" x2="79" y2="653"/>
	
		<line display="inline" opacity="0.3" fill="none" stroke="#449FDB" enable-background="new    " x1="95" y1="141" x2="95" y2="653"/>
	<line display="inline" fill="none" stroke="#449FDB" x1="111" y1="141" x2="111" y2="653"/>
	
		<line display="inline" opacity="0.3" fill="none" stroke="#449FDB" enable-background="new    " x1="127" y1="141" x2="127" y2="653"/>
	<line display="inline" fill="none" stroke="#449FDB" x1="143" y1="141" x2="143" y2="653"/>
	
		<line display="inline" opacity="0.3" fill="none" stroke="#449FDB" enable-background="new    " x1="159" y1="141" x2="159" y2="653"/>
	<line display="inline" fill="none" stroke="#449FDB" x1="175" y1="141" x2="175" y2="653"/>
	
		<line display="inline" opacity="0.3" fill="none" stroke="#449FDB" enable-background="new    " x1="191" y1="141" x2="191" y2="653"/>
	<line display="inline" fill="none" stroke="#449FDB" x1="207" y1="141" x2="207" y2="653"/>
	
		<line display="inline" opacity="0.3" fill="none" stroke="#449FDB" enable-background="new    " x1="223" y1="141" x2="223" y2="653"/>
	<line display="inline" fill="none" stroke="#449FDB" x1="239" y1="141" x2="239" y2="653"/>
	
		<line display="inline" opacity="0.3" fill="none" stroke="#449FDB" enable-background="new    " x1="255" y1="141" x2="255" y2="653"/>
	<line display="inline" fill="none" stroke="#449FDB" x1="271" y1="141" x2="271" y2="653"/>
	
		<line display="inline" opacity="0.3" fill="none" stroke="#449FDB" enable-background="new    " x1="287" y1="141" x2="287" y2="653"/>
	<line display="inline" fill="none" stroke="#449FDB" x1="303" y1="141" x2="303" y2="653"/>
	
		<line display="inline" opacity="0.3" fill="none" stroke="#449FDB" enable-background="new    " x1="319" y1="141" x2="319" y2="653"/>
	<line display="inline" fill="none" stroke="#449FDB" x1="335" y1="141" x2="335" y2="653"/>
	
		<line display="inline" opacity="0.3" fill="none" stroke="#449FDB" enable-background="new    " x1="351" y1="141" x2="351" y2="653"/>
	<line display="inline" fill="none" stroke="#449FDB" x1="367" y1="141" x2="367" y2="653"/>
	
		<line display="inline" opacity="0.3" fill="none" stroke="#449FDB" enable-background="new    " x1="383" y1="141" x2="383" y2="653"/>
	<line display="inline" fill="none" stroke="#449FDB" x1="399" y1="141" x2="399" y2="653"/>
	
		<line display="inline" opacity="0.3" fill="none" stroke="#449FDB" enable-background="new    " x1="415" y1="141" x2="415" y2="653"/>
	<line display="inline" fill="none" stroke="#449FDB" x1="431" y1="141" x2="431" y2="653"/>
	
		<line display="inline" opacity="0.3" fill="none" stroke="#449FDB" enable-background="new    " x1="447" y1="141" x2="447" y2="653"/>
	
		<line display="inline" opacity="0.3" fill="none" stroke="#449FDB" enable-background="new    " x1="-49" y1="157" x2="463" y2="157"/>
	<line display="inline" fill="none" stroke="#449FDB" x1="-49" y1="173" x2="463" y2="173"/>
	
		<line display="inline" opacity="0.3" fill="none" stroke="#449FDB" enable-background="new    " x1="-49" y1="189" x2="463" y2="189"/>
	<line display="inline" fill="none" stroke="#449FDB" x1="-49" y1="205" x2="463" y2="205"/>
	
		<line display="inline" opacity="0.3" fill="none" stroke="#449FDB" enable-background="new    " x1="-49" y1="221" x2="463" y2="221"/>
	<line display="inline" fill="none" stroke="#449FDB" x1="-49" y1="237" x2="463" y2="237"/>
	
		<line display="inline" opacity="0.3" fill="none" stroke="#449FDB" enable-background="new    " x1="-49" y1="253" x2="463" y2="253"/>
	<line display="inline" fill="none" stroke="#449FDB" x1="-49" y1="269" x2="463" y2="269"/>
	
		<line display="inline" opacity="0.3" fill="none" stroke="#449FDB" enable-background="new    " x1="-49" y1="285" x2="463" y2="285"/>
	<line display="inline" fill="none" stroke="#449FDB" x1="-49" y1="301" x2="463" y2="301"/>
	
		<line display="inline" opacity="0.3" fill="none" stroke="#449FDB" enable-background="new    " x1="-49" y1="317" x2="463" y2="317"/>
	<line display="inline" fill="none" stroke="#449FDB" x1="-49" y1="333" x2="463" y2="333"/>
	
		<line display="inline" opacity="0.3" fill="none" stroke="#449FDB" enable-background="new    " x1="-49" y1="349" x2="463" y2="349"/>
	<line display="inline" fill="none" stroke="#449FDB" x1="-49" y1="365" x2="463" y2="365"/>
	
		<line display="inline" opacity="0.3" fill="none" stroke="#449FDB" enable-background="new    " x1="-49" y1="381" x2="463" y2="381"/>
	<line display="inline" fill="none" stroke="#449FDB" x1="-49" y1="397" x2="463" y2="397"/>
	
		<line display="inline" opacity="0.3" fill="none" stroke="#449FDB" enable-background="new    " x1="-49" y1="413" x2="463" y2="413"/>
	<line display="inline" fill="none" stroke="#449FDB" x1="-49" y1="429" x2="463" y2="429"/>
	
		<line display="inline" opacity="0.3" fill="none" stroke="#449FDB" enable-background="new    " x1="-49" y1="445" x2="463" y2="445"/>
	<line display="inline" fill="none" stroke="#449FDB" x1="-49" y1="461" x2="463" y2="461"/>
	
		<line display="inline" opacity="0.3" fill="none" stroke="#449FDB" enable-background="new    " x1="-49" y1="477" x2="463" y2="477"/>
	<line display="inline" fill="none" stroke="#449FDB" x1="-49" y1="493" x2="463" y2="493"/>
	
		<line display="inline" opacity="0.3" fill="none" stroke="#449FDB" enable-background="new    " x1="-49" y1="509" x2="463" y2="509"/>
	<line display="inline" fill="none" stroke="#449FDB" x1="-49" y1="525" x2="463" y2="525"/>
	
		<line display="inline" opacity="0.3" fill="none" stroke="#449FDB" enable-background="new    " x1="-49" y1="541" x2="463" y2="541"/>
	<line display="inline" fill="none" stroke="#449FDB" x1="-49" y1="557" x2="463" y2="557"/>
	
		<line display="inline" opacity="0.3" fill="none" stroke="#449FDB" enable-background="new    " x1="-49" y1="573" x2="463" y2="573"/>
	<line display="inline" fill="none" stroke="#449FDB" x1="-49" y1="589" x2="463" y2="589"/>
	
		<line display="inline" opacity="0.3" fill="none" stroke="#449FDB" enable-background="new    " x1="-49" y1="605" x2="463" y2="605"/>
	<line display="inline" fill="none" stroke="#449FDB" x1="-49" y1="621" x2="463" y2="621"/>
	
		<line display="inline" opacity="0.3" fill="none" stroke="#449FDB" enable-background="new    " x1="-49" y1="637" x2="463" y2="637"/>
</g>
<path d="M421,341.2c-1.4-1.4-2.9-3.2-4.6-4.6c-4.2-6-14.2-14.6-34.1-18.5c-3.2-14.6-14.2-22.8-32.4-22.8c-5.4,0-10.3,0.7-13.9,1.4
	c-7.5-20.2-22.4-24.9-34.1-24.9c-8.9,0-17.4,2.9-22,4.6c-10.6-13.5-22.8-13.5-29.1-12.1c-7.5-11-16.4-13.5-23.1-13.5
	c-10.6,0-20.2,6-25.2,9.9c-11-8.5-22.1-12.8-32.7-12.8c-21.7,0-34.8,17.8-39.8,26c-2.1-0.7-4.2-0.7-6.4-0.7
	c-11.8,0-18.5,8.2-21.7,14.2c-5.4-2.9-10.3-4.2-15.6-4.2c-16,0-25.9,14.6-30.2,22.4c-3.2-1-7.8-2.1-13.2-2.1c-7.8,0-16,2.1-23.5,6.4
	c-15,8.6-20.2,20.2-22.8,27.4c-2.2,1.8-3.9,3.5-5,5.7c-5.8,5.7-8.6,12.4-8.6,19.6c0,2.5,0.3,4.6,1,7.1c0,0.7,0.3,1.8,0.3,2.5
	l53,122.7c8.9,37.7,90.3,57.2,170.3,57.2c80.4,0,161.8-19.5,170.6-57.2l49.8-119.1c2.1-3.6,3.2-7.4,3.5-11.4c0-0.4,0-0.4,0-0.7
	c0-0.3,0-0.3,0-0.7s0-0.7,0-0.7v-0.7C431.3,354,427.4,347.2,421,341.2L421,341.2L421,341.2z M217.3,457.8
	c-5.4,0.4-10.6-3.5-12.4-9.2c-2.1-5.7-8.9-28.8,0-29.5C228.7,417.6,236.1,456.8,217.3,457.8z M187.4,464.9
	c-17.8,7.5-28.4-30.6-6.4-40.2c8.6-3.5,12.8,20.2,13.5,26.3S192.4,462.8,187.4,464.9L187.4,464.9L187.4,464.9z M64.4,319.1
	c0-0.4,8.1-19.4,22.5-19.4c4.6,0,9.5,2,14.4,5.4l5.9,4.4l2.1-6.7c0,0,4.2-12.4,14.1-12.4c2.1,0,4.6,0.3,7,1.3l4.6,1.7l2.1-4.4
	c0-0.3,11.6-22.8,32.3-22.8c8.8,0,18.6,4,28.8,12.4l3.5,2.7l3.5-3c0,0,10.6-9.4,21.4-9.4c6.3,0,11.6,3.7,15.8,11l2.5,4l4.5-2
	c0,0,2.5-1,5.6-1c6.6,0,12.3,3.7,17.2,10.7l2.5,4l4.2-2c0,0,10.2-5,21.4-5c13,0,21,6.7,25,20.8l1.4,5l5.2-1.6c0,0,7.4-2,15.8-2
	c20.4,0,21.4,12.4,22.1,16.4l0.4,4l4.2,0.6c8.8,1.4,15.1,3.4,20,5.7c2.5,3.4,3.9,6.7,3.9,10.4c0,28.1-87.8,51.2-196.2,51.2
	C97.9,399.1,12.9,378,5.9,351.3l0.7-1l0.7-1.4v-1.4c0-0.4,0.7-8,7.3-15.8c1.4-1,2.8-2,4.2-3c-0.3,1-1.1,1.4-1.8,1.4
	c2.4-2,5.2-4.4,8.8-6.4l0,0c5.9-3.4,11.9-4.7,17.9-4.7c7.7,0,13,2.7,13,2.7L64.4,319.1z M175.4,499c-4.2,1-8.2-1-10.6-5
	c-4.6-6.8-7.1-16.7-3.6-22c1.8-2.5,12.8,2.9,16.7,6c2.1,1.8,3.9,4.2,4.6,7.1C183.9,491.6,180.7,497.6,175.4,499L175.4,499z
	 M238,521.5c-8.2,3.2-15,3.2-21,1.4c-4.6,4.2-10.6,7.5-19.2,8.2c-7.8,0.7-15.3-5-16.7-11.8c-2.1-8.2,0-12.5,7.1-16.7
	c7.8-6.8,4.6-14.6,5-22c0.4-6,4.6-11.4,10.6-12.8c6.4-1.4,12.8,1.4,15.6,7.1c3.5,6.8,5.4,15,14.6,17c7.8,0.7,11.4,3.2,13.5,11.8
	C249,510.4,245.1,519,238,521.5L238,521.5z M251.1,473.8c-0.4,4.6-3.2,8.2-7.5,9.2c-5.4,1.4-11-2.9-12.5-8.9c-0.7-3.2-0.4-6,1-8.5
	c2.1-4.6,9.2-14.2,12.1-12.8C249.6,455.3,252.1,465.6,251.1,473.8L251.1,473.8z"/>
</svg>
