<?xml version="1.0" encoding="utf-8"?>
<!-- Generated by IcoMoon.io -->
<!DOCTYPE svg PUBLIC "-//W3C//DTD SVG 1.1//EN" "http://www.w3.org/Graphics/SVG/1.1/DTD/svg11.dtd">
<svg version="1.1" xmlns="http://www.w3.org/2000/svg" xmlns:xlink="http://www.w3.org/1999/xlink" width="32" height="32" viewBox="0 0 32 32">
<path d="M25.111 7.289c-5.067-5.067-13.267-5.067-18.333 0s-5.067 13.267 0 18.333c5.067 5.067 13.267 5.067 18.333 0s5.067-13.289 0-18.333zM24.089 8.289c4.489 4.489 4.489 11.8 0 16.289s-11.8 4.489-16.289 0c-4.489-4.489-4.489-11.8 0-16.289s11.778-4.489 16.289 0zM23.2 9.178c-4.022-4.022-10.533-4.022-14.533 0s-4 10.533 0 14.533c4.022 4.022 10.533 4.022 14.533 0 4.022-4 4.022-10.511 0-14.533zM19.644 24.533c0 0-0.244 0.778-1.178 0.778s-1.178-0.778-1.178-0.778l0.689-10.244c-0.356-0.111-0.689-0.356-0.978-0.756-0.8-1.089-0.511-3.467 0.289-4.578 0.8-1.089 1.533-1.089 2.333 0s1.111 3.467 0.289 4.578c-0.289 0.378-0.622 0.622-0.978 0.756v0l0.711 10.244zM13.067 14.267v0c-0.6-0.222-1-0.8-1-0.8v-5.022c0-0.156 0.133-0.289 0.289-0.289s0.289 0.133 0.289 0.289v3.267c0 0 0 0.289 0.289 0.289s0.289-0.289 0.289-0.289v-3.267c0-0.156 0.133-0.289 0.289-0.289s0.289 0.133 0.289 0.289v3.267c0 0 0 0.289 0.289 0.289s0.289-0.289 0.289-0.289v-3.267c0-0.156 0.133-0.289 0.289-0.289s0.289 0.133 0.289 0.289v5.044c0 0-0.378 0.578-1 0.8l0.689 10.267c0 0-0.244 0.778-1.178 0.778s-1.178-0.778-1.178-0.778l0.778-10.289z" fill="#000000"></path>
</svg>
