<?xml version="1.0" encoding="utf-8"?>
<!-- Generator: Adobe Illustrator 18.1.0, SVG Export Plug-In . SVG Version: 6.00 Build 0)  -->
<svg version="1.1" xmlns="http://www.w3.org/2000/svg" xmlns:xlink="http://www.w3.org/1999/xlink" x="0px" y="0px"
	 viewBox="0 0 144 144" enable-background="new 0 0 144 144" xml:space="preserve">
<g id="icons_v1" display="none">
	<g display="inline">
		<rect x="91.4" y="16.7" width="19.8" height="54.4"/>
		<rect x="33.1" y="16.7" width="19.8" height="54.4"/>
		<polygon points="72,60.8 81.7,80.6 111.2,80.6 87.7,99.1 96.2,127.3 72,110.5 47.7,127.3 56.3,99.1 32.8,80.6 62.3,80.6 		"/>
		<polygon points="72,42.8 81.9,63.2 81.9,16.7 62.1,16.7 62.1,63.3 		"/>
	</g>
</g>
<g id="icons_v2">
	<g>
		<polygon points="91.4,18.7 111.2,18.7 91.4,80.1 		"/>
		<polygon points="33.1,18.7 52.9,18.7 52.9,80.1 		"/>
		<polygon points="72,65.8 81.7,85.6 111.2,85.6 87.7,104.1 96.2,132.3 72,115.5 47.7,132.3 56.3,104.1 32.8,85.6 62.3,85.6 		"/>
		<polygon points="72,51.8 81.9,72.2 81.9,18.7 62.1,18.7 62.1,72.3 		"/>
	</g>
	<polygon points="105,31.6 39.4,31.6 33.1,18.7 111.2,18.7 	"/>
</g>
<g id="icons_v3" display="none">
	<g display="inline">
		<rect x="78.6" y="33.5" transform="matrix(0.7072 0.7071 -0.7071 0.7072 64.3109 -51.493)" width="31.4" height="36.7"/>
		<polygon points="45.8,122.6 22.9,101.2 49.6,74.4 71.8,96.6 		"/>
		<path d="M111.8,103.4c-0.1-0.3-0.3-0.6-0.5-0.9c-1.6-1.6-5.9,0-9.5,3.6c-3.6,3.6-5.2,7.8-3.6,9.5c0.2,0.2,0.5,0.4,0.9,0.5
			c0.3,0.1,0.5,0.1,0.9,0.1l13.9,2l-2-13.9C111.9,104,111.9,103.7,111.8,103.4z"/>
		<path d="M110.1,93.6L92.4,76l26-26L96.2,27.8l-26,26l-6.7-6.7c-2.6-2.6-9.3-0.1-15,5.6c-0.4,0.4-0.8,0.9-1.2,1.3l46.5,46.5
			c0.4-0.4,0.8-0.9,1.2-1.3C100.8,93.5,107.5,91,110.1,93.6z M78.7,50.2l11.9,11.9l2.4-2.4L81.1,47.8l6.3-6.3l9.8,9.8l2.4-2.4
			L89.9,39l6.3-6.3L113.5,50L90,73.6L72.7,56.2L78.7,50.2z"/>
		<path d="M44,58.4c-2.3,3.9-2.9,7.5-1.1,9.2l6.7,6.7l-26,26l22.2,22.2l26-26l17.6,17.6c-1.7-1.7-1.2-5.3,1.1-9.2L44,58.4z
			 M45.8,117.8l-17.3-17.3l6.3-6.3l9.8,9.8l2.4-2.4l-9.8-9.8l6.3-6.3l11.9,11.9l2.4-2.4L46,82.9l6-6l17.3,17.3L45.8,117.8z"/>
		<path d="M39.5,64.3c-2.6-2.6-0.1-9.3,5.6-15c5.7-5.7,12.4-8.2,15-5.6l-8.5-8.5c-3.8-3.8-11.5-2.3-17.2,3.4
			c-5.7,5.7-7.2,13.4-3.4,17.2L39.5,64.3z"/>
	</g>
	
		<rect x="39.2" y="90.8" transform="matrix(0.7073 -0.707 0.707 0.7073 -57.1369 57.544)" display="inline" fill="#FFFFFF" width="3.4" height="13.9"/>
	
		<rect x="49" y="81.6" transform="matrix(0.7068 -0.7074 0.7074 0.7068 -48.8222 62.2952)" display="inline" fill="#FFFFFF" width="3.4" height="16.8"/>
	
		<rect x="91.8" y="38.2" transform="matrix(0.7073 -0.707 0.707 0.7073 -4.5153 79.3455)" display="inline" fill="#FFFFFF" width="3.4" height="13.9"/>
	
		<rect x="84.1" y="46.5" transform="matrix(0.7074 -0.7068 0.7068 0.7074 -13.7257 76.744)" display="inline" fill="#FFFFFF" width="3.4" height="16.8"/>
</g>
<g id="icons_v4" display="none">
	<g display="inline">
		<rect x="78.6" y="33.5" transform="matrix(0.7072 0.7071 -0.7071 0.7072 64.3109 -51.493)" width="31.4" height="36.7"/>
		<polygon points="45.8,122.6 22.9,101.2 49.6,74.4 71.8,96.6 		"/>
		<path d="M111.8,103.4c-0.1-0.3-0.3-0.6-0.5-0.9c-1.6-1.6-5.9,0-9.5,3.6c-3.6,3.6-5.2,7.8-3.6,9.5c0.2,0.2,0.5,0.4,0.9,0.5
			c0.3,0.1,0.5,0.1,0.9,0.1l13.9,2l-2-13.9C111.9,104,111.9,103.7,111.8,103.4z"/>
		<path d="M110.1,93.6L92.4,76l26-26L96.2,27.8l-26,26l-6.7-6.7c-2.6-2.6-9.3-0.1-15,5.6c-0.4,0.4-0.8,0.9-1.2,1.3l46.5,46.5
			c0.4-0.4,0.8-0.9,1.2-1.3C100.8,93.5,107.5,91,110.1,93.6z M78.7,50.2l11.9,11.9l2.4-2.4L81.1,47.8l6.3-6.3l9.8,9.8l2.4-2.4
			L89.9,39l6.3-6.3L113.5,50L90,73.6L72.7,56.2L78.7,50.2z"/>
		<path d="M44,58.4c-2.3,3.9-2.9,7.5-1.1,9.2l6.7,6.7l-26,26l22.2,22.2l26-26l17.6,17.6c-1.7-1.7-1.2-5.3,1.1-9.2L44,58.4z
			 M45.8,117.8l-17.3-17.3l6.3-6.3l9.8,9.8l2.4-2.4l-9.8-9.8l6.3-6.3l11.9,11.9l2.4-2.4L46,82.9l6-6l17.3,17.3L45.8,117.8z"/>
		<path d="M39.5,64.3c-2.6-2.6-0.1-9.3,5.6-15c5.7-5.7,12.4-8.2,15-5.6l-8.5-8.5c-3.8-3.8-11.5-2.3-17.2,3.4
			c-5.7,5.7-7.2,13.4-3.4,17.2L39.5,64.3z"/>
	</g>
	
		<rect x="39.2" y="90.8" transform="matrix(0.7073 -0.707 0.707 0.7073 -57.1369 57.544)" display="inline" fill="#FFFFFF" width="3.4" height="13.9"/>
	
		<rect x="49" y="81.6" transform="matrix(0.7068 -0.7074 0.7074 0.7068 -48.8222 62.2952)" display="inline" fill="#FFFFFF" width="3.4" height="16.8"/>
	
		<rect x="91.8" y="38.2" transform="matrix(0.7073 -0.707 0.707 0.7073 -4.5153 79.3455)" display="inline" fill="#FFFFFF" width="3.4" height="13.9"/>
	
		<rect x="84.1" y="46.5" transform="matrix(0.7074 -0.7068 0.7068 0.7074 -13.7257 76.744)" display="inline" fill="#FFFFFF" width="3.4" height="16.8"/>
</g>
</svg>
