<?xml version="1.0" encoding="utf-8"?>
<!-- Generated by IcoMoon.io -->
<!DOCTYPE svg PUBLIC "-//W3C//DTD SVG 1.1//EN" "http://www.w3.org/Graphics/SVG/1.1/DTD/svg11.dtd">
<svg version="1.1" xmlns="http://www.w3.org/2000/svg" xmlns:xlink="http://www.w3.org/1999/xlink" width="32" height="32" viewBox="0 0 32 32">
<path d="M25.311 5.333c-0.111-0.133-0.289-0.222-0.467-0.222h-18.311c-0.178 0-0.356 0.089-0.467 0.222s-0.156 0.311-0.133 0.489l3.556 20.556c0.044 0.289 0.311 0.511 0.6 0.511h11.222c0.289 0 0.556-0.222 0.6-0.511l3.511-20.556c0.044-0.178 0-0.356-0.111-0.489zM22.889 13.422c-1.244 0.8-3.867 1.911-7.422 0.133-3-1.511-5.711-1.267-7.133-0.978l-1.089-6.244h16.844l-1.2 7.089z" fill="#000000"></path>
</svg>
