<?xml version="1.0" encoding="utf-8"?>
<!-- Generated by IcoMoon.io -->
<!DOCTYPE svg PUBLIC "-//W3C//DTD SVG 1.1//EN" "http://www.w3.org/Graphics/SVG/1.1/DTD/svg11.dtd">
<svg version="1.1" xmlns="http://www.w3.org/2000/svg" xmlns:xlink="http://www.w3.org/1999/xlink" width="32" height="32" viewBox="0 0 32 32">
<path d="M9.356 23.778c-0.333-0.689-0.711-1.378-1.022-2.089-0.222-0.533-0.4-1.089-0.556-1.622-0.111-0.378 0.178-0.6 0.578-0.489 0.622 0.2 1.267 0.378 1.867 0.622 0.822 0.333 0.511 0.289 1.311 0.644-0.311-0.511-0.644-1.044-0.978-1.533-0.489-0.689-0.556-1.422-0.244-2.2 0.2-0.511 0.4-1 0.6-1.511 0.022-0.067 0.044-0.133 0.089-0.267-0.911 0.422-2.067 0.489-2.311 0.022-0.4-0.711-0.756-1.467-1.178-2.156-0.756-1.244-0.756-1.489-2-2.289-0.356-0.222-0.711-0.356-1.156-0.222-0.4 0.133-0.911-0.356-0.844-0.756 0.022-0.156 0.089-0.289 0.133-0.422 0.089-0.222 0.178-0.4 0.467-0.378 0.267 0.022 0.467 0.133 0.578 0.4 0.089 0.2 0.156 0.467 0.311 0.6 0.333 0.244 0.733 0.333 1.156 0.311 0.2-0.022 0.311-0.111 0.244-0.289-0.156-0.511-0.311-1-0.511-1.511-0.044-0.089-0.222-0.133-0.356-0.2-0.378-0.222-0.489-0.511-0.422-0.844 0.089-0.467 0.644-0.6 1.022-0.578 0.4 0.044 0.667 0.333 0.689 0.711 0.022 0.267-0.022 0.511-0.244 0.689-0.067 0.044-0.111 0.2-0.089 0.222 0.333 0.489 0.444 1.111 0.956 1.511 0.156 0.133 0.267 0.111 0.378-0.022 0.222-0.244 0.378-0.6 0.156-0.956-0.178-0.311-0.289-0.644-0.089-1 0.178-0.311 0.622-0.356 0.911-0.133 0.556 0.422 0.533 1.067 0 1.556-0.2 0.178-0.289 0.489-0.356 0.756-0.044 0.311 0 0.622 0 0.933 0.311 0.067 0.511 0.089 0.644-0.244 0.089-0.222 0.289-0.356 0.556-0.311 0.356 0.067 0.489 0.333 0.556 0.644 0.044 0.244 0.067 0.511-0.2 0.711-0.267 0.178-0.489 0.178-0.756-0.022-0.2-0.133-0.444-0.2-0.667 0-0.244 0.2-0.111 0.422-0.022 0.622 0.378 0.867 0.911 1.467 0.956 1.422 1.022-0.8 0.956-0.711 1.956-1.556 0.444-0.378 0.844-0.867 0.711-1.511-0.089-0.378-0.267-0.733-0.4-1.089-0.2-0.533-0.422-1.089-0.578-1.622-0.222-0.711-0.067-1.089 0.533-1.511 0.044-0.022 0.089-0.067 0.156-0.089 0.733-0.333 1.222-0.911 1.689-1.556 0.333-0.467 0.889-0.778 1.444-0.8 0.333-0.022 0.733 0.244 1.044 0.467 0.689 0.489 1.289 1.089 2 1.533 0.889 0.578 1.067 1.756 0.711 2.622-0.244 0.6-0.422 1.244-0.533 1.889-0.067 0.444 0.311 0.778 0.644 1.067 1.022 0.889 1.133 1.044 2.267 1.733 0.178 0.111 0.778-0.667 1.022-1.533 0.044-0.2 0.067-0.511-0.044-0.644-0.2-0.222-0.467-0.111-0.689 0.089-0.244 0.2-0.489 0.244-0.756 0.044s-0.333-0.489-0.222-0.8c0.089-0.244 0.178-0.489 0.467-0.556 0.333-0.067 0.533 0.156 0.667 0.378 0.156 0.244 0.311 0.133 0.467 0.089 0.067-0.022 0.111-0.222 0.089-0.356-0.022-0.222-0.044-0.467-0.111-0.689-0.111-0.289-0.222-0.556-0.556-0.733-0.378-0.178-0.467-0.644-0.289-1.111 0.156-0.422 0.489-0.6 0.911-0.511 0.244 0.044 0.467 0.467 0.422 0.756-0.022 0.133-0.044 0.244-0.111 0.356-0.244 0.444 0 0.911 0.444 1.133 0.6-0.4 0.667-1.111 0.933-1.711 0.044-0.067-0.089-0.244-0.178-0.333-0.244-0.267-0.311-0.689-0.156-1 0.133-0.267 0.6-0.467 0.978-0.4 0.356 0.044 0.6 0.244 0.689 0.6 0.067 0.311-0.111 0.578-0.356 0.711-0.556 0.289-0.556 0.844-0.689 1.333-0.067 0.222 0 0.489 0 0.733 0.556 0.111 1-0.111 1.422-0.4 0.089-0.067 0.111-0.222 0.133-0.333 0.067-0.289 0.133-0.6 0.467-0.711 0.4-0.133 0.733 0.178 0.8 0.733 0.044 0.467-0.356 0.911-0.822 0.8-0.333-0.067-0.578 0.067-0.822 0.222-0.733 0.422-1.178 1.111-1.667 1.756-0.844 1.156-0.644 1.6-1.178 2.911-0.378 0.933-1.756 0.556-2.556 0.333 1.156 1.622 1.667 2.556 0.8 4.467 0.333-0.2 1.578-0.822 2.289-1.133 0.133-0.067 0.378-0.089 0.422-0.044 0.089 0.178 0.178 0.4 0.156 0.578-0.2 1.311-0.667 2.511-1.178 3.733 0.378-0.022 0.667-0.222 0.844-0.511 0.378-0.622 0.733-1.244 1.044-1.911 0.178-0.356 0.044-0.778-0.156-1.133-0.178-0.311-0.089-0.8 0.178-0.978 0.311-0.2 0.711-0.111 0.956 0.2 0.178 0.222 0.156 0.756-0.089 0.889-0.378 0.2-0.222 0.533-0.222 0.8 0 0.111 0.067 0.222 0.133 0.422 0.4-0.333 0.8-0.622 1.156-0.933 0.156-0.133 0.244-0.311 0.111-0.556-0.178-0.289-0.067-0.556 0.2-0.733s0.533-0.4 0.889-0.156c0.311 0.222 0.511 0.467 0.556 0.867 0.044 0.444-0.356 0.644-0.733 0.644-0.111 0-0.244-0.022-0.311 0.044-0.4 0.356-0.8 0.756-0.956 1.378 0.222 0.022 0.4 0.044 0.6 0.067 0.133 0 0.289 0 0.422 0 0.422 0.044 0.8 0.022 1-0.422 0.022-0.044 0.067-0.067 0.089-0.111 0.222-0.178 0.489-0.356 0.756-0.222 0.311 0.133 0.444 0.467 0.422 0.778-0.022 0.267-0.133 0.533-0.267 0.778-0.222 0.422-0.689 0.422-0.978 0.044-0.089-0.089-0.222-0.222-0.311-0.222-0.733 0.044-1.489 0-2.178 0.2-0.6 0.178-1.133 0.6-1.644 1-0.956 0.778-1.711 1.756-2.444 2.756-0.156 0.2-0.333 0.4-0.556 0.556-0.111 0.089-0.333 0.133-0.467 0.089-0.111-0.044-0.222-0.244-0.244-0.4-0.244-0.978 0.156-1.867 0.378-2.778 0.089-0.333 0.2-0.889 0.2-0.889s-3.489 3.244-3.867 3.511c-0.578 0.4-1.2 0.267-1.756-0.089-0.511-0.333-1-0.711-1.467-1.111-0.556-0.467-1.911-0.978-2.467-1.267-0.044-0.022-0.089-0.044-0.244-0.133 0.133 0.422 0.244 0.756 0.356 1.067 0.222 0.6 0.489 1.2 0.644 1.822 0.089 0.356 0.089 0.756 0.044 1.111-0.022 0.2-1.311-0.067-1.578-0.178-0.178-0.089-0.378-0.178-0.533-0.311-0.956-0.956-0.778-1.489-1.889-2.267-0.4-0.267-0.8-0.511-1.244-0.689-0.778-0.289-1.6-0.133-2.4-0.111-0.311 0-0.489 0.133-0.667 0.4-0.244 0.333-0.622 0.356-0.911 0-0.289-0.333-0.378-0.733-0.311-1.133 0.067-0.444 0.511-0.622 0.956-0.4 0.133 0.067 0.267 0.156 0.356 0.267 0.2 0.267 0.467 0.311 0.756 0.267 0.4-0.067 0.8-0.133 1.222-0.222-0.222-0.622-0.667-0.978-1.156-1.311-0.067-0.044-0.178-0.022-0.267-0.022-0.667 0.089-1-0.267-0.778-0.867 0.089-0.267 0.356-0.533 0.6-0.667 0.289-0.133 0.644 0 0.822 0.289 0.111 0.178 0.111 0.422 0.156 0.644 0.022 0.111 0.022 0.267 0.089 0.356 0.356 0.4 0.778 0.689 1.311 0.8 0.2-0.4 0.111-0.844-0.2-1.111-0.267-0.222-0.356-0.644-0.178-0.956 0.133-0.244 0.622-0.378 0.889-0.244 0.289 0.133 0.467 0.533 0.311 0.867-0.289 0.667-0.111 1.289 0.289 1.844 0.311 0.422 0.644 0.844 1 1.2 0.2 0.2 0.489 0.289 0.756 0.444-0.044 0.022-0.044 0-0.022-0.022z" fill="#000000"></path>
</svg>
