<?xml version="1.0" encoding="utf-8"?>
<!-- Generator: Adobe Illustrator 18.1.0, SVG Export Plug-In . SVG Version: 6.00 Build 0)  -->
<!DOCTYPE svg PUBLIC "-//W3C//DTD SVG 1.1//EN" "http://www.w3.org/Graphics/SVG/1.1/DTD/svg11.dtd">
<svg version="1.1" id="Layer_1" xmlns="http://www.w3.org/2000/svg" xmlns:xlink="http://www.w3.org/1999/xlink" x="0px" y="0px"
	 viewBox="567.7 -144.3 1296 432" enable-background="new 567.7 -144.3 1296 432" xml:space="preserve">
<g id="icomoon-ignore">
</g>
<g>
	<path d="M807.5,178.5c-15.7,4.1-30.9,5.7-54.1,5.7c-52.7,0-68.9-27.8-58.9-97.2c9.7-70.5,31.3-95.6,83.7-95.6
		c23.2,0,34.8,1.6,49.4,5.1l-3.2,13.2c-15.4-1.9-25.7-2.4-46.2-2.4c-40.8,0-56.7,18.1-65.6,81.3c-8.4,59.9,1.6,79.7,40.8,79.7
		c23.2,0.3,37-0.8,52.1-3c0,0-0.1,4.3,0.3,7.5C806.4,176.8,807.5,178.5,807.5,178.5z"/>
	<path d="M1098.8,181h-13.2l2.7-30.5c-23,22.4-42.7,33.8-62.4,33.8c-23.8,0-34.3-13.2-31.1-36.2l13.8-97.7h17.3l-13.5,94
		c-2.7,17.8,3.2,25.1,18.9,25.1c17.6,0,32.9-11.3,57-33.2l11.9-85.9h17L1098.8,181z"/>
	<path d="M1173.8,113.2c-17.3-7.6-27.3-15.4-24.6-36.2c3.8-26.2,21.3-30.8,54-30.2c17.8,0.3,38.3,1.9,53.5,4.1l-2.2,12.2
		c-16.2-0.8-32.7-1.4-50.8-1.6c-25.7-0.3-35.4,0.5-37.8,17c-1.9,13,4.1,16.7,16.5,21.9l39.2,16.2c19.2,8.1,28.4,15.4,25.7,35.9
		c-4.1,29.2-24.8,31.9-59.7,31.9c-20.8,0-29.4-1.4-48.9-3.8l2.2-12.7c14.3,1.6,29.2,1.9,43.5,1.9c33.2-0.5,43.7-3.2,45.9-18.9
		c2.2-13.2-5.1-16.2-17.6-21.3L1173.8,113.2z"/>
	<path d="M1385.8,177.7c-12.4,4.3-37.5,6.5-52.7,6.5c-44.6,0-58.1-21.3-51-71c7.6-53.5,26.5-66.4,70.2-66.4
		c37.5,0,52.7,12.2,47,41.3c-4.9,24-18.1,32.1-47.5,34.8l-53.7,5.1c-2.4,33.8,10.3,41.6,38.3,41.6c15.1,0,34.8-1.9,48.1-3.5
		L1385.8,177.7z M1351.7,109.7c19.4-2.2,27-6.8,30.2-23c5.1-23.2-8.6-25.4-31.1-25.4c-32.1,0-44.3,7.6-51.3,52.4v1.1L1351.7,109.7z"
		/>
	<path d="M1444.9,148.9c-2.2,13,3,18.6,15.9,18.6h14l0.8,13c-4.6,1.9-15.9,2.7-21.6,2.7c-18.9,0-29.4-11.6-26.7-31.9L1449.7-8h17
		L1444.9,148.9z"/>
	<path d="M1621.2,50.3c-9.2,37.5-22.4,74.5-43.7,111c-27.8,48.6-50,69.4-81.3,75.6l-3-11.9c20.2-5.7,36.7-18.1,54.3-44h-11.1
		c-7.3,0-13-4.6-14.3-11.3l-25.9-119.3h18.1l22.4,111.2c0.8,3.5,3.2,5.7,6.8,5.7h12.7l6.2-10.8c19.7-35.1,31.3-65.6,41-106.1H1621.2
		z"/>
	<g>
		<path d="M859.2,52.3c18.2-2.7,41.6-5.9,63.7-5.9c26.7,0,40.4,10.3,36.2,40.2l-13.2,94h-13.5l1.1-23
			c-12.3,10.8-36.5,25.1-60.8,25.1c-22.7,0-35.5-12.4-32.3-35.4l2.1-15.1c2.8-20.3,16.9-31.9,38.8-31.9h58.6l1.9-13.8
			c2.3-16.5-2.6-25.4-24.2-25.4c-15.7,0-38.3,1.6-58.6,3.8L859.2,52.3z M858,145.7c-2.1,14.9,4.5,21.9,19.9,21.9
			c15.4,0.3,38.4-8.1,55.8-22.1l4.4-31.3h-55.9c-13.8,0.5-20.8,7.6-22.6,20.2L858,145.7z"/>
	</g>
	<path d="M1712-50.7c-3.4,0-6.7,1.3-9.2,3.6c-2.5-2.3-5.8-3.6-9.2-3.6c-7.3,0-13.2,5.9-13.2,13.2c0,2.9,0.9,5.6,2.5,7.8
		c0,0.1,0.2,0.2,0.2,0.3l16.4,19.4c0.7,0.9,3,3.9,3,3.9s2.2-3,3-3.8l16.5-19.1c2-2.4,3.1-5.4,3.1-8.4
		C1725.2-44.8,1719.3-50.7,1712-50.7L1712-50.7z"/>
	<path d="M1727.9-76.9c22.8,0,41.3,20.7,41.3,46.2c0,25.5-18.5,46.2-41.3,46.2h-15.4h-4.8l-3.8,2.8l-29.2,21.7l1.8-9l3-15.3
		l-15.5-1.7c-16.4-1.8-30.3-22.3-30.3-44.7c0-25.5,18.5-46.2,41.3-46.2H1727.9 M1727.9-91.3L1727.9-91.3h-53
		c-30.7,0-55.7,27.2-55.7,60.6c0,28.4,18,56.2,43.1,59l-8.9,45.5l59.1-44h15.4c30.7,0,55.7-27.2,55.7-60.6S1758.6-91.3,1727.9-91.3
		L1727.9-91.3z"/>
</g>
</svg>
