<?xml version="1.0" encoding="utf-8"?>
<!-- Generator: Adobe Illustrator 18.1.0, SVG Export Plug-In . SVG Version: 6.00 Build 0)  -->
<!DOCTYPE svg PUBLIC "-//W3C//DTD SVG 1.1//EN" "http://www.w3.org/Graphics/SVG/1.1/DTD/svg11.dtd">
<svg version="1.1" id="Layer_1" xmlns="http://www.w3.org/2000/svg" xmlns:xlink="http://www.w3.org/1999/xlink" x="0px" y="0px"
	 viewBox="696 -184 1536 512" enable-background="new 696 -184 1536 512" xml:space="preserve">
<path fill="#FFFFFF" d="M980.2,198.6c-18.6,4.9-36.6,6.8-64.1,6.8c-62.5,0-81.7-32.9-69.8-115.2c11.5-83.6,37.1-113.3,99.2-113.3
	c27.5,0,41.2,1.9,58.5,6l-3.8,15.6c-18.3-2.3-30.5-2.8-54.8-2.8c-48.4,0-67.2,21.5-77.7,96.4c-10,71,1.9,94.5,48.4,94.5
	c27.5,0.4,43.9-0.9,61.7-3.6c0,0-0.1,5.1,0.4,8.9C978.9,196.6,980.2,198.6,980.2,198.6L980.2,198.6z"/>
<path fill="#FFFFFF" d="M1325.5,201.5h-15.6l3.2-36.1c-27.3,26.5-50.6,40.1-74,40.1c-28.2,0-40.7-15.6-36.9-42.9l16.4-115.8h20.5
	l-16,111.4c-3.2,21.1,3.8,29.7,22.4,29.7c20.9,0,39-13.4,67.6-39.3l14.1-101.8h20.1L1325.5,201.5L1325.5,201.5z"/>
<path fill="#FFFFFF" d="M1414.3,121.2c-20.5-9-32.4-18.3-29.2-42.9c4.5-31.1,25.2-36.5,64-35.8c21.1,0.4,45.4,2.3,63.4,4.9
	l-2.6,14.5c-19.2-0.9-38.8-1.7-60.2-1.9c-30.5-0.4-42,0.6-44.8,20.1c-2.3,15.4,4.9,19.8,19.6,26l46.5,19.2
	c22.8,9.6,33.7,18.3,30.5,42.5c-4.9,34.6-29.4,37.8-70.8,37.8c-24.7,0-34.8-1.7-58-4.5l2.6-15.1c16.9,1.9,34.6,2.3,51.6,2.3
	c39.3-0.6,51.8-3.8,54.4-22.4c2.6-15.6-6-19.2-20.9-25.2L1414.3,121.2L1414.3,121.2z"/>
<path fill="#FFFFFF" d="M1665.6,197.6c-14.7,5.1-44.4,7.7-62.5,7.7c-52.9,0-68.9-25.2-60.4-84.1c9-63.4,31.4-78.7,83.2-78.7
	c44.4,0,62.5,14.5,55.7,48.9c-5.8,28.4-21.5,38-56.3,41.2l-63.6,6c-2.8,40.1,12.2,49.3,45.4,49.3c17.9,0,41.2-2.3,57-4.1
	L1665.6,197.6L1665.6,197.6z M1625.2,117c23-2.6,32-8.1,35.8-27.3c6-27.5-10.2-30.1-36.9-30.1c-38,0-52.5,9-60.8,62.1v1.3
	L1625.2,117L1625.2,117z"/>
<path fill="#FFFFFF" d="M1735.6,163.5c-2.6,15.4,3.6,22,18.8,22h16.6l0.9,15.4c-5.5,2.3-18.8,3.2-25.6,3.2
	c-22.4,0-34.8-13.7-31.6-37.8l26.5-188.8h20.1L1735.6,163.5L1735.6,163.5z"/>
<path fill="#FFFFFF" d="M1944.6,46.6c-10.9,44.4-26.5,88.3-51.8,131.6c-32.9,57.6-59.3,82.3-96.4,89.6l-3.6-14.1
	c23.9-6.8,43.5-21.5,64.4-52.1h-13.2c-8.7,0-15.4-5.5-16.9-13.4l-30.7-141.4h21.5l26.5,131.8c0.9,4.1,3.8,6.8,8.1,6.8h15.1l7.3-12.8
	c23.3-41.6,37.1-77.7,48.6-125.7h21.1L1944.6,46.6z"/>
<path fill="#FFFFFF" d="M1041.5,49c21.6-3.2,49.3-7,75.5-7c31.6,0,47.9,12.2,42.9,47.6l-15.6,111.4h-16l1.3-27.3
	c-14.6,12.8-43.3,29.7-72.1,29.7c-26.9,0-42.1-14.7-38.3-42l2.5-17.9c3.3-24.1,20-37.8,46-37.8h69.5l2.3-16.4
	c2.7-19.6-3.1-30.1-28.7-30.1c-18.6,0-45.4,1.9-69.5,4.5L1041.5,49L1041.5,49z M1040.1,159.7c-2.5,17.7,5.3,26,23.6,26
	c18.3,0.4,45.5-9.6,66.1-26.2l5.2-37.1h-66.3c-16.4,0.6-24.7,9-26.8,23.9L1040.1,159.7L1040.1,159.7z"/>
<path fill="#FFFFFF" d="M2052.2-73.1c-4,0-7.9,1.5-10.9,4.3c-3-2.7-6.9-4.3-10.9-4.3c-8.7,0-15.6,7-15.6,15.6c0,3.4,1.1,6.6,3,9.2
	c0,0.1,0.2,0.2,0.2,0.4l19.4,23c0.8,1.1,3.6,4.6,3.6,4.6s2.6-3.6,3.6-4.5l19.6-22.6c2.4-2.8,3.7-6.4,3.7-10
	C2067.9-66.1,2060.9-73.1,2052.2-73.1L2052.2-73.1L2052.2-73.1z"/>
<path fill="#FFFFFF" d="M2071.1-104.1c27,0,48.9,24.5,48.9,54.8s-21.9,54.8-48.9,54.8h-23.9l-4.5,3.3L2008,34.4l2.1-10.7l3.6-18.1
	l-18.4-2c-19.4-2.1-35.9-26.4-35.9-53c0-30.2,21.9-54.8,48.9-54.8H2071.1L2071.1-104.1z M2071.1-121.2L2071.1-121.2h-62.8
	c-36.4,0-66,32.2-66,71.8c0,33.7,21.3,66.6,51.1,69.9l-10.5,53.9l70-52.1h18.3c36.4,0,66-32.2,66-71.8S2107.4-121.2,2071.1-121.2
	L2071.1-121.2L2071.1-121.2z"/>
</svg>
