<?xml version="1.0" encoding="utf-8"?>
<!-- Generator: Adobe Illustrator 18.1.0, SVG Export Plug-In . SVG Version: 6.00 Build 0)  -->
<!DOCTYPE svg PUBLIC "-//W3C//DTD SVG 1.1//EN" "http://www.w3.org/Graphics/SVG/1.1/DTD/svg11.dtd">
<svg version="1.1" id="Layer_1" xmlns="http://www.w3.org/2000/svg" xmlns:xlink="http://www.w3.org/1999/xlink" x="0px" y="0px"
	 viewBox="484.3 -158.8 1454.7 439.8" enable-background="new 484.3 -158.8 1454.7 439.8" xml:space="preserve">
<path d="M1095.3,10.1l-14.9,105.5c-17,13.6-27.1,19.2-39.7,19.2c-7.7,0-11.4-3.1-10.1-13.9l16.1-110.7h-63.9L965,138.6
	c-4.5,31,11.4,49.6,46.3,49.6c24.4,0,47-11.2,72.8-35.8l0.4,31h49.6l24-173.3L1095.3,10.1L1095.3,10.1z"/>
<path d="M1169.9,51.5c-3.9,26.9,6,46.7,37,57.1l38.7,13.2c15.7,5.2,20.1,6.6,19.6,12.2c-1,6.6-8.7,8.3-46.7,8.3
	c-19.6,0-46.3-0.4-56.7-0.4l-5.2,37.9c33.5,5.6,56.1,7,82.9,7c50.9,0,81.1-7.4,86.3-51.5c3.5-28.3-9.7-44.5-37.9-53.6l-40.1-13
	c-13.9-4.5-18.4-7-17.8-12.6c1-6,7.4-6.2,32.3-6.2c21.9,0,44.3,0.4,67,0.8l5.6-37.9c-20.1-4.3-57.1-7.4-84-7.7
	C1194.1,5.2,1174.1,20.5,1169.9,51.5L1169.9,51.5z"/>
<path d="M1448,5.2c-62.3,0-95.1,17-103.2,89.2c-6.6,60.6,13.6,93.1,87.5,93.1c25.8,0,56.1-3.5,79.4-13.9l-4.3-39.3
	c-20.9,2.5-53.6,4.3-68.9,4.3c-19.6,0-28.7-3.5-29.2-21.9l47-3.5c45.7-3.5,67.6-13,72.4-45.3C1534.4,27.9,1516.4,5.2,1448,5.2
	L1448,5.2z M1467.8,61.2c-1.4,14.9-9.7,17.4-25.4,18.8l-29.2,2.7c5.6-28.3,12.6-34.5,33.9-34.8C1464.3,47.6,1469,49.7,1467.8,61.2
	L1467.8,61.2z"/>
<path d="M1618.4,137.8c-13.2,0-16.5-2.7-14.7-13.6l26.5-185.1h-63.1l-28.3,199c-3.9,30.6,16.1,49.6,51.9,49.6
	c10.8,0,35.6-2.1,45.7-7.4l-3.5-42.6L1618.4,137.8L1618.4,137.8z"/>
<path d="M1776.6,10.1c-8.7,57.5-19.6,95.8-37,133.4h-11.2c-3.1,0-5.6-2.5-5.6-5.6l-9.1-128h-68.7l24.8,155.1
	c1.7,10.5,10.1,18.2,21.7,18.2h24.4c-19.6,23.4-40.1,27.9-65.2,35.6l5.2,35.8c55.8,0.4,96.8-23.6,131.6-81.9
	c16.5-28.7,47.4-102.4,56.7-162.8h-67.6L1776.6,10.1z"/>
<path d="M892.2,5.2c-25.4,0-69.7,3.9-96.2,8.7l-1,41c29.2-1.7,57.1-2.5,74.5-2.5c18.2,0,22.8,5.2,20.9,19.9l-0.6,4.3h-57.5
	c-34.5,0-58.1,16.6-62.3,44.3l-2.7,17.4c-5,32.3,18,49.6,50.3,49.6c30,0,51.9-15.3,66.4-30l1.9,25.4h50.3l17.4-110.5
	C961.9,21.1,939.1,5.2,892.2,5.2L892.2,5.2z M881.6,131.2C869,138.6,855.6,143,846,143c-11.8,0-16.3-4.8-14.9-13.9l1-6
	c1.4-7.9,6.2-13.2,16.8-13.6h36.2L881.6,131.2L881.6,131.2z"/>
<path d="M749.8,128.9c-21.9,2.1-37.2,2.7-71.4,2.7c-29.6,0-35.2-27.3-29.2-66.2c7.5-49.6,22.3-71.1,51.7-71.1
	c30.6,0,42.8,0.4,67.2,1l7.7-47.8c-22.3-6.2-40.9-9.1-75.7-9.1c-77.4,0-105.9,26.9-119.3,122c-13,92.7,13.6,126.8,91,126.8
	c34.1,0,57.7-2.7,82.5-10.5c0,0-5.4-5.2-6-19.6C747.2,143.2,749.8,128.9,749.8,128.9L749.8,128.9z"/>
</svg>
