<?xml version="1.0" encoding="utf-8"?>
<!-- Generator: Adobe Illustrator 18.1.1, SVG Export Plug-In . SVG Version: 6.00 Build 0)  -->
<svg version="1.1" id="Layer_1" xmlns="http://www.w3.org/2000/svg" xmlns:xlink="http://www.w3.org/1999/xlink" x="0px" y="0px"
	 viewBox="1544.3 -36.3 216 216" enable-background="new 1544.3 -36.3 216 216" xml:space="preserve">
<g>
	<path fill="#FFFFFF" d="M1662.9,31.9c-3.4,0-6.7,1.3-9.2,3.6c-2.5-2.3-5.8-3.6-9.2-3.6c-7.3,0-13.2,5.9-13.2,13.2
		c0,2.9,0.9,5.6,2.5,7.8c0,0.1,0.2,0.2,0.2,0.3l16.4,19.4c0.7,0.9,3,3.9,3,3.9s2.2-3,3-3.8l16.5-19.1c2-2.4,3.1-5.4,3.1-8.4
		C1676.1,37.8,1670.2,31.9,1662.9,31.9L1662.9,31.9z"/>
	<path fill="#FFFFFF" d="M1678.8,5.7c22.8,0,41.3,20.7,41.3,46.2c0,25.5-18.5,46.2-41.3,46.2h-15.4h-4.8l-3.8,2.8l-29.2,21.7l1.8-9
		l3-15.3l-15.5-1.7c-16.4-1.8-30.3-22.3-30.3-44.7c0-25.5,18.5-46.2,41.3-46.2H1678.8 M1678.8-8.7L1678.8-8.7h-53
		c-30.7,0-55.7,27.2-55.7,60.6c0,28.4,18,56.2,43.1,59l-8.9,45.5l59.1-44h15.4c30.7,0,55.7-27.2,55.7-60.6S1709.6-8.7,1678.8-8.7
		L1678.8-8.7z"/>
</g>
</svg>
