<?xml version="1.0" encoding="utf-8"?>
<!-- Generator: Adobe Illustrator 18.1.1, SVG Export Plug-In . SVG Version: 6.00 Build 0)  -->
<svg version="1.1" id="Layer_1" xmlns="http://www.w3.org/2000/svg" xmlns:xlink="http://www.w3.org/1999/xlink" x="0px" y="0px"
	 viewBox="1544.3 -36.3 216 216" enable-background="new 1544.3 -36.3 216 216" xml:space="preserve">
<path fill="#FFFFFF" d="M1678.8-8.7L1678.8-8.7h-53c-30.7,0-55.7,27.2-55.7,60.6c0,28.4,18,56.2,43.1,59l-8.9,45.5l59.1-44h15.4
	c30.7,0,55.7-27.2,55.7-60.6C1734.6,18.5,1709.6-8.7,1678.8-8.7z M1673,53.5l-16.5,19.1c-0.7,0.9-3,3.8-3,3.8s-2.3-3-3-3.9
	l-16.4-19.4c0-0.1-0.2-0.2-0.2-0.3c-1.6-2.2-2.5-4.9-2.5-7.8c0-7.3,5.9-13.2,13.2-13.2c3.4,0,6.7,1.3,9.2,3.6
	c2.5-2.3,5.8-3.6,9.2-3.6v0c7.3,0,13.2,5.9,13.2,13.2C1676.1,48.2,1675,51.2,1673,53.5z"/>
</svg>
